<?xml version="1.0" encoding="UTF-8"?>
<svg version="1.1" xmlns="http://www.w3.org/2000/svg" width="1024" height="1024">
<path d="M0 0 C337.92 0 675.84 0 1024 0 C1024 337.92 1024 675.84 1024 1024 C686.08 1024 348.16 1024 0 1024 C0 686.08 0 348.16 0 0 Z " fill="#121A1F" transform="translate(0,0)"/>
<path d="M0 0 C1.49853516 0.49306641 1.49853516 0.49306641 3.02734375 0.99609375 C16.2176895 5.70809613 28.86815716 12.50417754 40 21 C41.00160156 21.74894531 42.00320313 22.49789063 43.03515625 23.26953125 C50.34798496 28.77922691 57.37732797 34.58927855 64.31884766 40.55712891 C66.05549119 42.04762604 67.79855541 43.53032539 69.54296875 45.01171875 C75.98356384 50.49100481 82.32165545 56.05440419 88.5546875 61.76953125 C90.68038898 63.70846982 92.82778049 65.61359885 95 67.5 C99.18285079 71.13428019 103.26653176 74.87437598 107.359375 78.609375 C109.46799215 80.51835975 111.59465957 82.39453302 113.75 84.25 C118.32376103 88.22515018 122.73026442 92.37882578 127.14599609 96.52758789 C130.25226526 99.44458203 133.36789645 102.34537737 136.54296875 105.1875 C143.38709661 111.32958986 149.45023574 117.6236047 155 125 C155.79921875 126.04542969 156.5984375 127.09085938 157.421875 128.16796875 C172.27745578 148.00341368 187.28419495 174.538361 186.44921875 200.01953125 C185.76151966 204.58226519 184.62912436 206.15981572 181 209 C173.04397604 212.88961172 165.07465609 210.97945051 156.98046875 208.515625 C136.56484738 201.21882602 120.02974081 186.07715324 105 171 C104.17242188 170.20722656 103.34484375 169.41445313 102.4921875 168.59765625 C86.65609199 153.25791597 74.98336878 134.8262051 63.77929688 115.96118164 C38.29719699 70.54296808 38.29719699 70.54296808 -3 41 C-5.33299825 40.96045766 -7.66708189 40.95598268 -10 41 C-9.86619768 46.35209277 -7.77173363 49.16091115 -4.28125 52.9375 C-1.73403698 55.24045972 0.91984703 57.02608779 3.8125 58.875 C17.75715012 67.92345163 24.72219794 79.96082993 33 94 C34.32039559 96.21036406 35.64204916 98.41997704 36.96484375 100.62890625 C40.35910326 106.30964986 43.72291118 112.00758983 47.07080078 117.71582031 C48.3355343 119.86884427 49.60459187 122.0193353 50.87841797 124.16699219 C52.59620821 127.0635852 54.30000656 129.96793653 56 132.875 C56.51054932 133.73029297 57.02109863 134.58558594 57.54711914 135.46679688 C58.00594482 136.25892578 58.46477051 137.05105469 58.9375 137.8671875 C59.33839844 138.54894043 59.73929688 139.23069336 60.15234375 139.93310547 C61.18152346 142.44262029 61.23696516 144.31086359 61 147 C59.7421875 148.8125 59.7421875 148.8125 58 150 C45.50203555 150 34.26859521 143.35898781 23.71142578 137.30297852 C18.83316104 134.59788917 15.58857832 133.44114217 10 134 C10 138.38234065 11.30017939 140.75989504 14.1875 143.875 C24.23393865 153.2576561 38.00199601 159.19276831 51.25 162.25 C81.1756704 170.11146058 106.89226337 197.77931778 121.98022461 223.56225586 C131.23814593 239.9687663 137.31775064 256.53541818 141 275 C141.20238281 275.95390625 141.40476562 276.9078125 141.61328125 277.890625 C143.69570404 294.63414559 142.68838937 312.39375815 136 328 C135.01 328 134.02 328 133 328 C132.70867187 327.04480469 132.41734375 326.08960938 132.1171875 325.10546875 C125.28006473 303.27545171 111.96790707 288.49931749 95.875 272.8125 C81.44011293 258.70396405 69.30293381 244.8936116 60.265625 226.671875 C59.92356018 225.98493561 59.58149536 225.29799622 59.22906494 224.59024048 C54.89458251 215.83517888 50.79768484 206.96699798 46.69824219 198.10009766 C45.67295479 195.88499999 44.64157636 193.67282002 43.609375 191.4609375 C43.15301666 190.46711563 43.15301666 190.46711563 42.68743896 189.45321655 C41.24108721 186.36292319 39.70570752 183.46505912 37.77441406 180.65869141 C36 178 36 178 36 176 C35.34 176 34.68 176 34 176 C34.31453125 177.00675781 34.6290625 178.01351562 34.953125 179.05078125 C46.42982977 216.461507 46.42982977 216.461507 40.55859375 231.6484375 C34.84341931 240.27133228 24.78232866 243.74611136 15.75 247.9375 C-17.35984882 263.37092632 -42.53757452 285.2324951 -60.08984375 317.50390625 C-60.72019531 318.65761719 -61.35054687 319.81132813 -62 321 C-62.46148438 321.97195313 -62.92296875 322.94390625 -63.3984375 323.9453125 C-65 326 -65 326 -67.69921875 326.48828125 C-68.68535156 326.43027344 -69.67148437 326.37226562 -70.6875 326.3125 C-72.17830078 326.24482422 -72.17830078 326.24482422 -73.69921875 326.17578125 C-74.45847656 326.11777344 -75.21773437 326.05976562 -76 326 C-75.40975898 321.64392371 -74.33436868 317.9239508 -72.671875 313.859375 C-72.20136719 312.70566406 -71.73085938 311.55195312 -71.24609375 310.36328125 C-70.75238281 309.17089844 -70.25867188 307.97851562 -69.75 306.75 C-69.27175781 305.57308594 -68.79351563 304.39617187 -68.30078125 303.18359375 C-60.30336975 283.69938524 -60.30336975 283.69938524 -53.80517578 277.69287109 C-51.97964524 275.98091156 -50.36854318 274.19011747 -48.7421875 272.2890625 C-44.50087411 267.39350993 -40.05913161 262.70159873 -35.60546875 258 C-31.85132502 254.0204522 -28.20208105 249.97194345 -24.61669922 245.83984375 C-22.41285467 243.33181407 -20.10999753 240.92216794 -17.8125 238.5 C0.39010866 218.84847521 11.17924488 198.9355836 10.39453125 171.62890625 C9.9222907 162.7672748 7.97816317 154.37657757 4.36328125 146.25 C3 143 3 143 3 140 C2.34 140 1.68 140 1 140 C0.74992188 140.70125 0.49984375 141.4025 0.2421875 142.125 C-8.95522679 163.41209722 -31.18966206 182.53691258 -52.40722656 190.95507812 C-61.38874672 194.23590166 -70.00205053 197.17828262 -79.625 197.1875 C-80.305625 197.19974609 -80.98625 197.21199219 -81.6875 197.22460938 C-83.45990756 197.22986355 -85.2317994 197.12215906 -87 197 C-87.66 196.34 -88.32 195.68 -89 195 C-88.87158203 193.00048828 -88.87158203 193.00048828 -88 191 C-86.28857422 189.87841797 -86.28857422 189.87841797 -84.0546875 188.9921875 C-83.23226562 188.65074707 -82.40984375 188.30930664 -81.5625 187.95751953 C-80.2321875 187.42167236 -80.2321875 187.42167236 -78.875 186.875 C-64.17870655 180.59191585 -52.28508108 172.26838717 -41 161 C-39.90945313 159.92685547 -39.90945313 159.92685547 -38.796875 158.83203125 C-21.83187011 141.03213439 -13.4247615 115.60829679 -13.57568359 91.31542969 C-14.33377984 69.3051992 -26.1440375 51.16674049 -37.453125 33.0703125 C-38.14921875 31.95398438 -38.8453125 30.83765625 -39.5625 29.6875 C-40.16191406 28.74261719 -40.76132812 27.79773438 -41.37890625 26.82421875 C-44.92047589 20.65420706 -47.3655916 15.12708759 -46 8 C-42.63399775 2.59399638 -37.98437341 -0.93890585 -31.78515625 -2.58984375 C-21.07464618 -4.16712784 -10.24756157 -3.44373838 0 0 Z " fill="#FBFBFB" transform="translate(722,262)"/>
<path d="M0 0 C3.57090828 4.04826928 5.57215177 6.88892986 5.453125 12.43359375 C3.80207903 21.78477655 -2.89495978 30.52823836 -7.9375 38.375 C-16.09829079 51.08084851 -22.4693412 63.23905362 -26 78 C-26.1743457 78.61560791 -26.34869141 79.23121582 -26.52832031 79.86547852 C-31.67857279 103.17223699 -23.45871164 125.30824603 -11.5625 144.8125 C0.82043614 163.42864444 17.11000114 176.12639271 37.546875 184.9375 C41.10794353 186.47987363 44.54284156 188.23880608 48 190 C47.125 193.875 47.125 193.875 46 195 C24.82524974 196.76939694 4.16877773 188.45282919 -12 175 C-15.41676488 172.08288021 -18.72908458 169.07917211 -22 166 C-22.60328125 165.46117187 -23.2065625 164.92234375 -23.828125 164.3671875 C-27.85560213 160.62201017 -31.04910832 156.38620673 -34.25 151.9375 C-34.67474609 151.34751221 -35.09949219 150.75752441 -35.53710938 150.1496582 C-37.49934966 147.35876914 -39.14908811 144.69938542 -40.671875 141.62890625 C-41.72898288 138.88689465 -41.72898288 138.88689465 -44 138 C-44.17015625 139.00740234 -44.17015625 139.00740234 -44.34375 140.03515625 C-45.28056202 144.26753914 -46.75007916 148.30129693 -48.18359375 152.38476562 C-50.93820363 160.41225299 -51.18256287 167.84700417 -51.1875 176.25 C-51.19974609 177.33152344 -51.21199219 178.41304687 -51.22460938 179.52734375 C-51.2789013 209.53268048 -29.44968514 230.13444378 -10.109375 250.67578125 C-7.29644551 253.66887771 -4.58039253 256.73009723 -1.90625 259.84765625 C-0.26721141 261.69829203 1.40131019 263.50711016 3.09375 265.30859375 C3.66279053 265.91501709 4.23183105 266.52144043 4.81811523 267.14624023 C5.94433027 268.34307029 7.07382489 269.53682662 8.20727539 270.72680664 C15.94098735 278.94864243 20.47956118 286.72947598 24.5625 297.3125 C25.47829237 299.64278356 26.3962391 301.9722217 27.31640625 304.30078125 C27.97793701 305.98228271 27.97793701 305.98228271 28.65283203 307.69775391 C30.33577905 311.82307854 32.18706464 315.85533652 34.09741211 319.87963867 C35 322 35 322 35 324 C31.04 324 27.08 324 23 324 C22.45472656 323.00742187 21.90945313 322.01484375 21.34765625 320.9921875 C3.21912003 288.22355875 -18.83902394 264.76381548 -52.6484375 248.14453125 C-57.53677361 245.7411182 -62.40350293 243.29923774 -67.25 240.8125 C-68.06033691 240.40854004 -68.87067383 240.00458008 -69.70556641 239.58837891 C-76.9163808 235.86180076 -80.22671867 231.75678383 -83 224 C-85.76993385 207.56104474 -79.2473331 189.38585847 -74 174 C-77.22694939 176.93731228 -79.12464753 179.75604593 -81.05859375 183.65625 C-81.60966797 184.76226562 -82.16074219 185.86828125 -82.72851562 187.0078125 C-83.29248047 188.16023437 -83.85644531 189.31265625 -84.4375 190.5 C-84.99759766 191.62148438 -85.55769531 192.74296875 -86.13476562 193.8984375 C-89.27935882 200.25367135 -92.14878019 206.66008989 -94.83129883 213.22216797 C-103.66568542 234.22021489 -116.99466127 251.22666725 -133.125 267.08203125 C-133.76183212 267.70874222 -134.39866425 268.33545319 -135.05479431 268.9811554 C-137.69655423 271.5774007 -140.33977128 274.17187485 -142.99804688 276.7512207 C-157.59313661 290.93550961 -167.96682128 305.22458086 -174 325 C-175.8984375 324.7421875 -175.8984375 324.7421875 -178 324 C-187.96578099 306.85885669 -184.13642355 279.32598364 -179.69287109 261.28564453 C-177.05702953 251.41963697 -173.46132894 242.17170224 -169 233 C-168.53255371 232.01 -168.53255371 232.01 -168.05566406 231 C-162.98775733 220.36007728 -156.30953336 211.20487213 -149 202 C-148.56977539 201.45263184 -148.13955078 200.90526367 -147.69628906 200.34130859 C-130.59988267 178.63886477 -109.49836809 165.59782622 -83.34814453 157.26879883 C-74.12849368 154.28488944 -65.17156622 150.58476082 -58 143.875 C-57.29875 143.23304688 -56.5975 142.59109375 -55.875 141.9296875 C-51.72914668 137.74617991 -51.72914668 137.74617991 -51 132 C-57.88501373 131.22356503 -62.120596 133.83128661 -68 137.1875 C-89.19503687 148.79686979 -89.19503687 148.79686979 -99 148 C-100.875 146.9375 -100.875 146.9375 -102 145 C-101.86979941 138.01566841 -98.4716964 132.89912048 -95 127 C-94.40695068 125.97326172 -93.81390137 124.94652344 -93.20288086 123.88867188 C-91.48155605 120.917957 -89.74442949 117.95719337 -88 115 C-87.58121582 114.28714844 -87.16243164 113.57429688 -86.73095703 112.83984375 C-84.61990717 109.25564212 -82.46971521 105.69697974 -80.30175781 102.14697266 C-78.725861 99.54786602 -77.17223241 96.93585271 -75.6171875 94.32421875 C-74.39088894 92.27848759 -73.16432605 90.23291487 -71.9375 88.1875 C-71.37168213 87.23230469 -70.80586426 86.27710938 -70.22290039 85.29296875 C-63.28602758 73.7864497 -55.387654 63.35683061 -44 56.0625 C-38.94493778 52.78560037 -34.027394 49.34057885 -31 44 C-30.68673729 41.38178151 -30.68673729 41.38178151 -31 39 C-31.33 38.67 -31.66 38.34 -32 38 C-47.25899837 39.13309394 -61.42499316 52.47786346 -71.15625 63.46875 C-79.42579408 73.26180839 -86.2046594 84.16309895 -93 95 C-93.5971582 95.95116699 -94.19431641 96.90233398 -94.80957031 97.88232422 C-100.43577921 106.8549275 -106.05010541 115.83490886 -111.60546875 124.8515625 C-118.6822329 136.25561952 -126.20033836 146.86308014 -135 157 C-135.54398437 157.63534668 -136.08796875 158.27069336 -136.6484375 158.92529297 C-154.3876278 179.48525587 -180.37473532 205.99543978 -209 209 C-209.75796875 209.08121094 -210.5159375 209.16242188 -211.296875 209.24609375 C-217.03392272 209.56374908 -220.36601635 208.40455941 -225 205 C-229.08235636 198.88329214 -227.48329189 190.00986847 -226.3828125 183.15625 C-224.12748357 172.49774246 -219.77640471 162.7412364 -215 153 C-214.49629883 151.97181152 -214.49629883 151.97181152 -213.98242188 150.92285156 C-209.73524485 142.37447276 -204.89989446 134.52784969 -199 127 C-198.35160156 126.15953125 -197.70320313 125.3190625 -197.03515625 124.453125 C-186.96118233 111.60631469 -175.61140535 99.45269819 -163.15625 88.87109375 C-160.20891358 86.31353189 -157.35918457 83.65530452 -154.5 81 C-150.39103289 77.18936796 -146.25317218 73.4291026 -142.01171875 69.765625 C-139.53387293 67.5908943 -137.11421125 65.35661598 -134.6875 63.125 C-130.1482504 58.98074035 -125.46541704 55.07421602 -120.68359375 51.21484375 C-118.05291443 49.04367173 -115.52057576 46.79758643 -113 44.5 C-107.82131053 39.79946809 -102.47797775 35.34617764 -97 31 C-96.3930127 30.51515137 -95.78602539 30.03030273 -95.16064453 29.53076172 C-72.15647069 11.23807997 -30.18519556 -20.65034493 0 0 Z " fill="#FBFBFB" transform="translate(343,264)"/>
<path d="M0 0 C3.88949634 0.55313379 5.62670023 2.28128993 8.3125 5.0625 C9.10785156 5.88363281 9.90320313 6.70476562 10.72265625 7.55078125 C12.61295486 9.5837439 14.44648155 11.640648 16.25 13.75 C19.48341562 17.52735469 22.96721531 21.00657365 26.5 24.5 C31.21140283 29.16396139 35.78499723 33.87455663 40 39 C40.62519531 39.69867188 41.25039063 40.39734375 41.89453125 41.1171875 C44.75255595 45.03040128 46.61684909 49.22910138 48.625 53.625 C51.78575129 60.40152523 55.02817131 67.09797211 58.5625 73.6875 C63.56367445 83.04091298 68.316767 92.51532261 73.0625 102 C73.44802032 102.76863373 73.83354065 103.53726746 74.23074341 104.32919312 C75.33451506 106.53082068 76.43535707 108.73388581 77.53515625 110.9375 C78.0375885 111.93938103 78.0375885 111.93938103 78.5501709 112.96150208 C81.37881816 118.64738792 82.12135513 122.6525957 81.75 128.9375 C81.70939453 130.01161133 81.70939453 130.01161133 81.66796875 131.10742188 C81.35499291 136.55421117 81.35499291 136.55421117 79.49284363 138.89263916 C77.5881074 141.58144491 77.60517618 143.22863671 77.56762695 146.50292969 C77.53793571 148.15418854 77.53793571 148.15418854 77.50764465 149.83880615 C77.50125473 151.02121887 77.49486481 152.20363159 77.48828125 153.421875 C77.47033005 154.63699768 77.45237885 155.85212036 77.43388367 157.10406494 C77.37969142 160.98600797 77.3458553 164.86782741 77.3125 168.75 C77.27933492 171.38152765 77.24484603 174.01303897 77.20898438 176.64453125 C77.1239596 183.09624335 77.05564729 189.54797127 77 196 C78.41732749 195.07330774 79.83221068 194.14287657 81.24609375 193.2109375 C82.0342749 192.69321777 82.82245605 192.17549805 83.63452148 191.64208984 C86.980251 189.31952026 89.96453502 186.71254317 93 184 C96.25207092 185.41738489 98.31361067 187.12526412 100.75 189.6875 C104.64729007 193.69467606 108.75613275 197.36726505 113 201 C108.79894904 206.202236 104.4716405 210.31500601 99.125 214.3125 C98.3832251 214.87155029 97.6414502 215.43060059 96.87719727 216.0065918 C77.80302388 230.1873591 56.73116461 241.2677338 33.8125 247.75 C32.76280029 248.04813599 32.76280029 248.04813599 31.69189453 248.35229492 C-3.19023122 257.76909651 -37.86442914 249.78370721 -69 233 C-69.92256592 232.50862549 -69.92256592 232.50862549 -70.86376953 232.00732422 C-79.4820188 227.38621113 -87.33552366 222.07433602 -95 216 C-95.92167969 215.27167969 -96.84335937 214.54335938 -97.79296875 213.79296875 C-100.20449595 211.87300839 -102.60397587 209.9392431 -105 208 C-105.89847656 207.34644531 -106.79695313 206.69289063 -107.72265625 206.01953125 C-110.06713777 203.94046274 -110.67310808 203.05099126 -111 200 C-110.29037109 199.38125 -110.29037109 199.38125 -109.56640625 198.75 C-108.90511719 198.1725 -108.24382812 197.595 -107.5625 197 C-106.83546875 196.3709375 -106.1084375 195.741875 -105.359375 195.09375 C-103.75504886 193.67004336 -102.18264774 192.20971238 -100.640625 190.71875 C-99.87234375 189.9865625 -99.1040625 189.254375 -98.3125 188.5 C-97.60738281 187.8090625 -96.90226562 187.118125 -96.17578125 186.40625 C-94 185 -94 185 -91.78979492 185.09570312 C-87.94898736 186.34068004 -85.29739238 188.54199637 -82.1875 191.0625 C-81.59001953 191.53494141 -80.99253906 192.00738281 -80.37695312 192.49414062 C-78.91156874 193.65472506 -77.45489124 194.82628832 -76 196 C-75.93033561 188.67181144 -75.87710568 181.34369488 -75.84456348 174.01524162 C-75.82894083 170.61192969 -75.80776565 167.20884515 -75.77368164 163.80566406 C-75.73469966 159.88870003 -75.7202626 155.97182649 -75.70703125 152.0546875 C-75.69154739 150.83884979 -75.67606354 149.62301208 -75.66011047 148.37033081 C-75.65891204 142.3370878 -75.86902683 138.29953444 -79 133 C-81.21385704 121.10454963 -76.57574422 112.40136327 -71.125 102.3125 C-70.33535837 100.80153226 -69.54826612 99.28922959 -68.76367188 97.77563477 C-66.8693298 94.13529118 -64.94536516 90.5117753 -63.00939941 86.89343262 C-61.64106078 84.32670138 -60.29938255 81.74648513 -58.9609375 79.1640625 C-57.03469097 75.45591825 -55.08318174 71.76246003 -53.11181641 68.078125 C-51.52421489 65.11069767 -49.94568851 62.13849574 -48.36987305 59.16479492 C-47.59482388 57.70479626 -46.81645524 56.24655385 -46.03442383 54.7902832 C-44.07405246 51.12304053 -42.32577362 47.44964615 -40.6875 43.625 C-38.04320366 38.20741725 -33.64883156 34.66806856 -29.1328125 30.8359375 C-26.08954684 28.19600778 -23.54807965 25.23706172 -20.93212891 22.18115234 C-17.35497545 18.14295561 -13.46912484 14.40682136 -9.625 10.625 C-8.01074338 9.03616475 -6.39864674 7.44513097 -4.7890625 5.8515625 C-4.08475098 5.15885254 -3.38043945 4.46614258 -2.65478516 3.75244141 C-0.92378526 2.08833587 -0.92378526 2.08833587 0 0 Z " fill="#389E90" transform="translate(510,319)"/>
<path d="M0 0 C0.6875 1.75 0.6875 1.75 1 4 C0.28054451 4.88936249 0.28054451 4.88936249 -0.45344543 5.79669189 C-2.38726433 8.55171842 -2.39403321 10.15969576 -2.43237305 13.50292969 C-2.46206429 15.15418854 -2.46206429 15.15418854 -2.49235535 16.83880615 C-2.49874527 18.02121887 -2.50513519 19.20363159 -2.51171875 20.421875 C-2.52966995 21.63699768 -2.54762115 22.85212036 -2.56611633 24.10406494 C-2.62030858 27.98600797 -2.6541447 31.86782741 -2.6875 35.75 C-2.72066508 38.38152765 -2.75515397 41.01303897 -2.79101562 43.64453125 C-2.8760404 50.09624335 -2.94435271 56.54797127 -3 63 C-1.58267251 62.07330774 -0.16778932 61.14287657 1.24609375 60.2109375 C2.0342749 59.69321777 2.82245605 59.17549805 3.63452148 58.64208984 C6.980251 56.31952026 9.96453502 53.71254317 13 51 C16.25207092 52.41738489 18.31361067 54.12526412 20.75 56.6875 C24.64729007 60.69467606 28.75613275 64.36726505 33 68 C28.79894904 73.202236 24.4716405 77.31500601 19.125 81.3125 C18.3832251 81.87155029 17.6414502 82.43060059 16.87719727 83.0065918 C-2.19697612 97.1873591 -23.26883539 108.2677338 -46.1875 114.75 C-47.23719971 115.04813599 -47.23719971 115.04813599 -48.30810547 115.35229492 C-83.19023122 124.76909651 -117.86442914 116.78370721 -149 100 C-149.61504395 99.67241699 -150.23008789 99.34483398 -150.86376953 99.00732422 C-159.4820188 94.38621113 -167.33552366 89.07433602 -175 83 C-175.92167969 82.27167969 -176.84335937 81.54335938 -177.79296875 80.79296875 C-180.20449595 78.87300839 -182.60397587 76.9392431 -185 75 C-185.89847656 74.34644531 -186.79695313 73.69289063 -187.72265625 73.01953125 C-190.06713777 70.94046274 -190.67310808 70.05099126 -191 67 C-190.52691406 66.5875 -190.05382812 66.175 -189.56640625 65.75 C-188.90511719 65.1725 -188.24382812 64.595 -187.5625 64 C-186.83546875 63.3709375 -186.1084375 62.741875 -185.359375 62.09375 C-183.75504886 60.67004336 -182.18264774 59.20971238 -180.640625 57.71875 C-179.87234375 56.9865625 -179.1040625 56.254375 -178.3125 55.5 C-177.60738281 54.8090625 -176.90226562 54.118125 -176.17578125 53.40625 C-174 52 -174 52 -169 53 C-164.71 56.3 -160.42 59.6 -156 63 C-155.67 44.52 -155.34 26.04 -155 7 C-152.36 8.98 -149.72 10.96 -147 13 C-139.98170736 18.15324014 -132.71864075 22.6810442 -125.125 26.9375 C-124.04452393 27.54360107 -122.96404785 28.14970215 -121.85083008 28.77416992 C-104.45367748 38.33985619 -85.73190822 47.11055546 -65.515625 42.01171875 C-45.22066205 35.99638928 -13.73568646 22.42136252 -1.8125 4.18359375 C-0.84332121 2.40124129 -0.84332121 2.40124129 0 0 Z " fill="#1D795F" transform="translate(590,452)"/>
<path d="M0 0 C3.9563109 3.39612528 5.68358467 7.08928365 7.75 11.75 C8.45415513 13.28978329 9.15992263 14.82883012 9.8671875 16.3671875 C10.22264648 17.14416992 10.57810547 17.92115234 10.94433594 18.72167969 C12.52684848 22.13703748 14.18829397 25.51009806 15.875 28.875 C16.19952148 29.52243164 16.52404297 30.16986328 16.85839844 30.83691406 C19.92431614 36.91235794 23.10841272 42.9246961 26.29077148 48.93969727 C29.93460778 55.84032122 33.44016046 62.8023216 36.90332031 69.79492188 C38.11269819 72.22660064 39.33289774 74.65265948 40.5546875 77.078125 C46.84176712 89.57237328 52.94791691 102.14428051 58.93774414 114.78369141 C59.62834292 116.22456838 60.35211552 117.65016636 61.11303711 119.05517578 C64.47653582 126.43024616 62.71555605 137.95431249 60.25708008 145.42236328 C55.42865024 158.27430134 47.32633604 167.24918949 37 176 C34.04145459 174.67197431 32.01051291 173.2410159 29.76367188 170.91137695 C29.15624146 170.28765701 28.54881104 169.66393707 27.92297363 169.02131653 C27.27807983 168.35041489 26.63318604 167.67951324 25.96875 166.98828125 C24.5876683 165.57705427 23.20614454 164.1662598 21.82421875 162.75585938 C19.65303647 160.52873403 17.48597641 158.29796128 15.32666016 156.05932617 C13.23919225 153.89959065 11.13658128 151.75558659 9.03125 149.61328125 C8.3863562 148.93630692 7.7414624 148.25933258 7.07702637 147.56184387 C6.46959595 146.94758041 5.86216553 146.33331696 5.23632812 145.70043945 C4.70656372 145.15353958 4.17679932 144.60663971 3.63098145 144.04316711 C2.03246722 142.78440235 2.03246722 142.78440235 -0.04689026 143.1971283 C-3.10044047 144.45236194 -4.94421451 146.61154064 -7.24609375 148.953125 C-7.98558006 149.69897858 -7.98558006 149.69897858 -8.74000549 150.4598999 C-10.31303525 152.04968106 -11.87533661 153.64954711 -13.4375 155.25 C-14.48432787 156.31188664 -15.5318471 157.37309219 -16.58007812 158.43359375 C-18.51926061 160.39720739 -20.45338524 162.36534322 -22.38452148 164.33691406 C-31.34018746 173.45559272 -31.34018746 173.45559272 -34 175 C-40.15791169 174.31000144 -44.83589257 168.43098166 -48.7421875 164.04296875 C-52.63113595 159.09614572 -55.44576376 153.73344517 -58 148 C-58.48339844 147.00806641 -58.48339844 147.00806641 -58.9765625 145.99609375 C-62.65505958 137.21239277 -62.87926945 125.29587462 -59.43676758 116.41699219 C-57.37426345 111.76943871 -54.95362905 107.32472054 -52.5 102.875 C-51.69709537 101.35988321 -50.89760245 99.84295346 -50.1015625 98.32421875 C-48.60861624 95.48277933 -47.09419256 92.6550751 -45.56054688 89.83544922 C-42.25095367 83.67088362 -39.16991018 77.38873655 -36.05605698 71.12385559 C-34.70383431 68.40437575 -33.34755584 65.68693051 -31.99107456 62.96957302 C-30.97212243 60.92832834 -29.953726 58.88680719 -28.93544006 56.8452301 C-26.32357923 51.60925122 -23.70969677 46.374282 -21.09561253 41.13941288 C-19.11681769 37.17654986 -17.13879747 33.21330367 -15.16235352 29.24926758 C-13.22915782 25.37205556 -11.29404026 21.49580852 -9.3575573 17.62023735 C-8.6236199 16.15051449 -7.89038687 14.68043967 -7.15786934 13.21000862 C-6.14297516 11.17301612 -5.12562914 9.13726679 -4.10766602 7.10180664 C-3.53000992 5.94427383 -2.95235382 4.78674103 -2.35719299 3.59413147 C-1 1 -1 1 0 0 Z " fill="#DADBDE" transform="translate(511,173)"/>
<path d="M0 0 C0 58.08 0 116.16 0 176 C-10.1445614 176 -10.1445614 176 -13.5859375 174.8203125 C-14.36146973 174.55637695 -15.13700195 174.29244141 -15.93603516 174.02050781 C-16.74089355 173.72499023 -17.54575195 173.42947266 -18.375 173.125 C-19.23786621 172.81401367 -20.10073242 172.50302734 -20.98974609 172.18261719 C-30.46017539 168.64133523 -39.2405235 164.01611048 -48 159 C-48.78713379 158.5560791 -49.57426758 158.1121582 -50.38525391 157.65478516 C-76.41485409 142.87287213 -76.41485409 142.87287213 -80 132 C-81.9271503 119.90200012 -77.7075536 111.64533121 -72.125 101.3125 C-71.33535837 99.80153226 -70.54826612 98.28922959 -69.76367188 96.77563477 C-67.8693298 93.13529118 -65.94536516 89.5117753 -64.00939941 85.89343262 C-62.64106078 83.32670138 -61.29938255 80.74648513 -59.9609375 78.1640625 C-58.03469097 74.45591825 -56.08318174 70.76246003 -54.11181641 67.078125 C-52.52421489 64.11069767 -50.94568851 61.13849574 -49.36987305 58.16479492 C-48.59482388 56.70479626 -47.81645524 55.24655385 -47.03442383 53.7902832 C-45.07405246 50.12304053 -43.32577362 46.44964615 -41.6875 42.625 C-39.04320366 37.20741725 -34.64883156 33.66806856 -30.1328125 29.8359375 C-27.10282102 27.20606151 -24.56933714 24.26399072 -21.96337891 21.22119141 C-18.20388822 16.96803967 -14.14668785 13.00323974 -10.125 9 C-9.25875 8.12988281 -8.3925 7.25976562 -7.5 6.36328125 C-6.26636719 5.13158203 -6.26636719 5.13158203 -5.0078125 3.875 C-4.26160645 3.12992187 -3.51540039 2.38484375 -2.74658203 1.6171875 C-1 0 -1 0 0 0 Z " fill="#7DCE7E" transform="translate(511,320)"/>
<path d="M0 0 C2.50825979 1.42478681 4.28752616 2.88740955 6.34375 4.90234375 C30.57697976 26.91815379 66.04100675 42.16382673 98.84375 41.77734375 C100.75534912 41.75994141 100.75534912 41.75994141 102.70556641 41.7421875 C111.93593946 41.5819666 120.57599293 41.04887457 129.46875 38.40234375 C130.31002441 38.15484375 131.15129883 37.90734375 132.01806641 37.65234375 C156.5966771 30.19983642 179.11759068 18.10369842 198.234375 0.88671875 C200.46875 -0.59765625 200.46875 -0.59765625 202.49609375 -0.59375 C205.12348597 0.732953 206.76297241 2.44968084 208.78125 4.58984375 C212.50966968 8.45406679 216.33818327 11.97485221 220.46875 15.40234375 C212.08908385 35.0572675 176.15768916 50.68245418 157.46875 58.40234375 C117.03685991 73.87590732 77.98906172 74.35565011 38.1171875 56.6328125 C26.20007101 51.15723596 15.03263157 45.17406661 4.46875 37.40234375 C3.44136719 36.665 2.41398437 35.92765625 1.35546875 35.16796875 C-6.24669864 29.6068502 -13.40478175 23.5517962 -20.53125 17.40234375 C-17.67067854 11.05933748 -12.1291482 6.76927996 -6.90625 2.33984375 C-6.19210937 1.73011719 -5.47796875 1.12039063 -4.7421875 0.4921875 C-2.53125 -0.59765625 -2.53125 -0.59765625 0 0 Z " fill="#7CCB7E" transform="translate(410.53125,573.59765625)"/>
<path d="M0 0 C0.99 0.495 0.99 0.495 2 1 C-2.75 5 -2.75 5 -5 5 C-5.01981934 5.95777344 -5.03963867 6.91554688 -5.06005859 7.90234375 C-5.13668251 11.48836593 -5.22530745 15.07401203 -5.31738281 18.65966797 C-5.35543978 20.20549035 -5.39033132 21.75139428 -5.421875 23.29736328 C-5.46803654 25.53187018 -5.5259398 27.76582671 -5.5859375 30 C-5.59748871 30.68054443 -5.60903992 31.36108887 -5.62094116 32.06225586 C-5.76923207 36.98855058 -6.68695263 41.28224384 -8 46 C-5.03 45.505 -5.03 45.505 -2 45 C-11.78635954 56.49624392 -32.77833335 62.79819145 -46.75 67.3125 C-47.49354736 67.55508545 -48.23709473 67.7976709 -49.00317383 68.04760742 C-71.22722139 74.92711618 -95.98762673 74.10929319 -118 67 C-118.71397949 66.77538086 -119.42795898 66.55076172 -120.16357422 66.31933594 C-124.89280619 64.79578032 -129.45518772 63.00428859 -134 61 C-135.12341797 60.51273438 -135.12341797 60.51273438 -136.26953125 60.015625 C-151.28462145 53.34225158 -151.28462145 53.34225158 -154 46.9375 C-154.625 44.65234375 -154.625 44.65234375 -155 42 C-155.18433594 40.88753906 -155.36867188 39.77507813 -155.55859375 38.62890625 C-156.33946271 32.1198821 -156.10415889 25.54365087 -156.0625 19 C-156.05747487 17.63932456 -156.05291376 16.27864733 -156.04882812 14.91796875 C-156.03710459 11.61193275 -156.02069427 8.30598999 -156 5 C-155.26233398 5.36182373 -155.26233398 5.36182373 -154.50976562 5.73095703 C-136.60586839 14.47095144 -119.51767416 20.84391101 -100 25 C-99.19755859 25.18103271 -98.39511719 25.36206543 -97.56835938 25.54858398 C-64.86528202 31.29649178 -28.43620157 18.24438375 -1 1 C-0.67 0.67 -0.34 0.34 0 0 Z " fill="#0C333C" transform="translate(592,544)"/>
<path d="M0 0 C3.25207092 1.41738489 5.31361067 3.12526412 7.75 5.6875 C11.64729007 9.69467606 15.75613275 13.36726505 20 17 C15.79894904 22.202236 11.4716405 26.31500601 6.125 30.3125 C5.3832251 30.87155029 4.6414502 31.43060059 3.87719727 32.0065918 C-15.19697612 46.1873591 -36.26883539 57.2677338 -59.1875 63.75 C-60.23719971 64.04813599 -60.23719971 64.04813599 -61.30810547 64.35229492 C-96.19023122 73.76909651 -130.86442914 65.78370721 -162 49 C-162.61504395 48.67241699 -163.23008789 48.34483398 -163.86376953 48.00732422 C-172.4820188 43.38621113 -180.33552366 38.07433602 -188 32 C-189.38251953 30.90751953 -189.38251953 30.90751953 -190.79296875 29.79296875 C-193.20449595 27.87300839 -195.60397587 25.9392431 -198 24 C-198.89847656 23.34644531 -199.79695313 22.69289063 -200.72265625 22.01953125 C-203.06713777 19.94046274 -203.67310808 19.05099126 -204 16 C-203.29037109 15.38125 -203.29037109 15.38125 -202.56640625 14.75 C-201.90511719 14.1725 -201.24382812 13.595 -200.5625 13 C-199.83546875 12.3709375 -199.1084375 11.741875 -198.359375 11.09375 C-196.75504886 9.67004336 -195.18264774 8.20971238 -193.640625 6.71875 C-192.87234375 5.9865625 -192.1040625 5.254375 -191.3125 4.5 C-190.60738281 3.8090625 -189.90226562 3.118125 -189.17578125 2.40625 C-187 1 -187 1 -184.66015625 0.9375 C-180.87487718 2.44938826 -178.19601506 4.86247857 -175.125 7.5 C-149.57491475 28.59229083 -115.49027536 42.90863168 -82 40 C-54.54980695 36.44828533 -26.74294292 23.25547618 -6 5 C-4.79387022 3.99734333 -3.58582252 2.99698459 -2.375 2 C-1.59125 1.34 -0.8075 0.68 0 0 Z " fill="#7DCC7E" transform="translate(603,503)"/>
<path d="M0 0 C0.33 0 0.66 0 1 0 C1.58794288 17.82026963 2.02670638 35.63797613 2.2953043 53.46589565 C2.42342716 61.74710978 2.59751415 70.02225139 2.88598633 78.29956055 C3.13776274 85.5274763 3.29702847 92.75099483 3.35221237 99.98317391 C3.38441868 103.80410838 3.45806274 107.61248577 3.64325142 111.42931938 C4.26119701 124.67461044 4.57942074 136.95570368 -4.55618286 147.43606567 C-9.66713134 152.98747831 -15.30776359 157.93121698 -21.17619419 162.66218662 C-23.96141306 164.96805408 -26.4760044 167.41399402 -29 170 C-31.0625 171.875 -31.0625 171.875 -33 173 C-39.15791169 172.31000144 -43.83589257 166.43098166 -47.7421875 162.04296875 C-51.63113595 157.09614572 -54.44576376 151.73344517 -57 146 C-57.48339844 145.00806641 -57.48339844 145.00806641 -57.9765625 143.99609375 C-61.65505958 135.21239277 -61.87926945 123.29587462 -58.43676758 114.41699219 C-56.37426345 109.76943871 -53.95362905 105.32472054 -51.5 100.875 C-50.69709537 99.35988321 -49.89760245 97.84295346 -49.1015625 96.32421875 C-47.60861624 93.48277933 -46.09419256 90.6550751 -44.56054688 87.83544922 C-41.24760826 81.66498248 -38.16374416 75.37659055 -35.04693222 69.10560608 C-33.71900851 66.43486561 -32.3871293 63.76610978 -31.05501652 61.09745693 C-30.06557064 59.11522898 -29.07668139 57.13272416 -28.08790588 55.15016174 C-25.55561091 50.07330464 -23.02128575 44.99746143 -20.48676395 39.92171574 C-18.56850378 36.07992072 -16.65101901 32.23774226 -14.73510742 28.39477539 C-12.86026644 24.63427275 -10.98350356 20.87473521 -9.10537529 17.11587334 C-8.39376648 15.6908079 -7.68286194 14.26539055 -6.97267342 12.83961678 C-5.98891227 10.86489013 -5.00269934 8.89140719 -4.01586914 6.91821289 C-3.45597794 5.79620987 -2.89608673 4.67420685 -2.31922913 3.51820374 C-1 1 -1 1 0 0 Z " fill="#FBFCFC" transform="translate(510,175)"/>
<path d="M0 0 C0.99 0.495 0.99 0.495 2 1 C1.01 1.33 0.02 1.66 -1 2 C-1.09023438 2.68707031 -1.18046875 3.37414062 -1.2734375 4.08203125 C-2.16118567 7.64734246 -3.77662805 10.55167697 -5.625 13.6875 C-6.16459351 14.61876709 -6.16459351 14.61876709 -6.71508789 15.56884766 C-9.29762905 19.96536391 -12.14666355 24.09565893 -15.140625 28.22265625 C-17.97193417 32.45177562 -20.38686327 36.90454523 -22.80444336 41.38037109 C-24.91464765 45.24661951 -27.19210781 48.58499599 -30 52 C-30.82970965 53.39472666 -31.62377309 54.81148038 -32.375 56.25 C-34.57805116 60.32972437 -37.034537 64.15345033 -39.6484375 67.98046875 C-40.75222292 69.62976662 -41.76537659 71.33940904 -42.75 73.0625 C-43.1625 73.701875 -43.575 74.34125 -44 75 C-44.66 75 -45.32 75 -46 75 C-46.4021875 76.5778125 -46.4021875 76.5778125 -46.8125 78.1875 C-47.87252219 81.59072912 -48.91388304 84.13158918 -51 87 C-51.66 87 -52.32 87 -53 87 C-53.12181641 88.08861328 -53.12181641 88.08861328 -53.24609375 89.19921875 C-54.1692684 92.62883651 -55.64274998 94.23911505 -58.0625 96.8125 C-58.79597656 97.60269531 -59.52945313 98.39289063 -60.28515625 99.20703125 C-60.85105469 99.79871094 -61.41695313 100.39039063 -62 101 C-65.004638 98.18343358 -67.20194559 95.35635916 -69.35546875 91.8515625 C-69.97317139 90.85350586 -70.59087402 89.85544922 -71.22729492 88.82714844 C-71.8741626 87.77043945 -72.52103027 86.71373047 -73.1875 85.625 C-74.54093813 83.43444554 -75.89510047 81.24433836 -77.25 79.0546875 C-77.8996875 78.00249023 -78.549375 76.95029297 -79.21875 75.86621094 C-81.33262898 72.46476642 -83.49960055 69.10424291 -85.6875 65.75 C-89.72622238 59.51040082 -93.5303116 53.14176111 -97.33520508 46.75756836 C-100.93919213 40.72686233 -104.62175978 34.75144028 -108.375 28.8125 C-108.85042236 28.0594458 -109.32584473 27.3063916 -109.81567383 26.53051758 C-112.68951731 22.00226551 -115.63610543 17.53051405 -118.6472168 13.09228516 C-120.75545844 9.83156852 -122.4393883 6.55819467 -124 3 C-123.67 2.34 -123.34 1.68 -123 1 C-121.22109375 1.68835938 -121.22109375 1.68835938 -119.40625 2.390625 C-101.2300147 9.3207515 -83.17567651 14.42906033 -63.5625 14.25 C-62.45994873 14.24178223 -61.35739746 14.23356445 -60.22143555 14.22509766 C-41.07404109 13.96158191 -22.43673247 8.99396472 -4.74682617 1.74121094 C-3.18417361 1.1098784 -1.59391138 0.54764068 0 0 Z " fill="#0D323B" transform="translate(573,629)"/>
<path d="M0 0 C0.495 0.99 0.495 0.99 1 2 C4.63 2 8.26 2 12 2 C10.00812618 6.76644581 7.85413723 11.37576619 5.48828125 15.97265625 C5.15636276 16.61762558 4.82444427 17.26259491 4.48246765 17.92710876 C3.78192024 19.28658376 3.08014506 20.64542673 2.37719727 22.00366211 C1.32879801 24.03098404 0.28621605 26.06121873 -0.75585938 28.09179688 C-5.27673709 36.86731586 -10.02978423 45.47052354 -15 54 C-15.51457764 54.88905029 -16.02915527 55.77810059 -16.55932617 56.6940918 C-25.98337591 72.89919497 -35.85645415 88.53658909 -49 102 C-47.69836598 105.90490207 -45.32380767 107.15427909 -42.0625 109.375 C-40.78857174 110.26361978 -39.51516025 111.15298071 -38.2421875 112.04296875 C-37.55866211 112.51782715 -36.87513672 112.99268555 -36.17089844 113.48193359 C-30.04529338 117.76544824 -24.004592 122.17057755 -17.96289062 126.57128906 C-16.27546046 127.79950316 -14.58347956 129.02146072 -12.890625 130.2421875 C-12.08109375 130.84289062 -11.2715625 131.44359375 -10.4375 132.0625 C-9.77621094 132.54847656 -9.11492187 133.03445313 -8.43359375 133.53515625 C-6.70373065 135.30272753 -6.28882098 136.56275627 -6 139 C-6.33 139.33 -6.66 139.66 -7 140 C-14.43718611 139.756762 -19.50057313 137.65136862 -25.9375 134.0625 C-26.84193848 133.57394531 -27.74637695 133.08539062 -28.67822266 132.58203125 C-31.46214668 131.07210636 -34.23278349 129.54030368 -37 128 C-37.86093262 127.52159668 -38.72186523 127.04319336 -39.60888672 126.55029297 C-46.32201432 122.81468863 -46.32201432 122.81468863 -49.05053711 121.26196289 C-53.27604634 118.87341456 -57.5034365 116.83149845 -62 115 C-62.88300781 115.76183594 -63.76601563 116.52367187 -64.67578125 117.30859375 C-70.31719006 122.16542008 -75.96255289 127.00440076 -81.75 131.6875 C-88.82520231 137.4374063 -95.63335461 143.4701073 -102 150 C-103.11955078 151.10408203 -103.11955078 151.10408203 -104.26171875 152.23046875 C-105.49341797 153.44669922 -105.49341797 153.44669922 -106.75 154.6875 C-107.91789063 155.83798828 -107.91789063 155.83798828 -109.109375 157.01171875 C-111.05230615 158.8610699 -111.05230615 158.8610699 -112 161 C-113.32 161 -114.64 161 -116 161 C-116.2616795 155.57545472 -115.44681004 151.09105206 -113.6875 145.9375 C-113.42751221 145.17091064 -113.16752441 144.40432129 -112.8996582 143.61450195 C-104.86902469 121.02622862 -91.73416053 98.15514661 -73.02734375 82.73828125 C-69.71744086 79.90031056 -66.72728086 76.7469371 -63.6875 73.625 C-61.62860916 71.61399034 -59.56010163 69.7404913 -57.37890625 67.87109375 C-52.49718244 63.63751812 -47.93821224 59.08871454 -43.3815918 54.51196289 C-41.93974779 53.06475615 -40.49262884 51.62297974 -39.04492188 50.18164062 C-33.81883468 44.96002892 -28.74998061 39.66056345 -24 34 C-23.50540283 33.41210693 -23.01080566 32.82421387 -22.5012207 32.21850586 C-9.8495409 17.04082976 -9.8495409 17.04082976 0 0 Z " fill="#3E9F91" transform="translate(645,586)"/>
<path d="M0 0 C4.521703 -0.73435177 8.50745264 -1.01359471 13 0 C15.48854375 2.65937143 16.77656788 5.30547426 18.34765625 8.5859375 C28.65806523 29.88924115 51.19620094 51.03234314 68.97265625 66.19140625 C72.31817218 69.17594166 75.41505785 72.40703273 78.5625 75.59765625 C80.64506596 77.6501852 82.76375366 79.55743 85 81.4375 C93.24725534 88.53513793 100.11728852 96.87668815 106 106 C106.48855469 106.75410156 106.97710937 107.50820313 107.48046875 108.28515625 C114.36747657 119.34498919 119.83470027 130.79231957 124 143.125 C124.30284912 144.01356689 124.60569824 144.90213379 124.91772461 145.81762695 C126.38614111 150.34348562 127.37937268 154.17880551 127 159 C124 159 124 159 121.6015625 156.828125 C119.15353616 154.16690717 116.75490311 151.47216342 114.375 148.75 C110.14129907 144.06403428 105.6734433 140.08991096 100.72265625 136.18359375 C98.03087306 134.02476046 95.48212879 131.76708974 92.9375 129.4375 C88.13195263 125.06047278 83.11129438 121.01172181 78 117 C76.33219609 115.66808946 74.66522799 114.3351297 73 113 C62.26215545 118.22680374 51.73277154 123.79367966 41.25195312 129.51831055 C39.3253431 130.57020803 37.39691031 131.61877683 35.46630859 132.66333008 C33.51276823 133.72209404 31.56738083 134.79589954 29.625 135.875 C26.736489 137.11293328 24.74739834 137.31408372 21.625 137.1875 C20.75101562 137.16042969 19.87703125 137.13335938 18.9765625 137.10546875 C18.32429688 137.07066406 17.67203125 137.03585937 17 137 C20.66902899 128.01789624 32.81959949 121.93241483 40.56054688 116.54003906 C47.20574442 111.90032042 53.62945333 107.00780364 60 102 C58.58895893 98.82515759 56.88520416 96.63728471 54.5 94.125 C37.64782772 75.37016311 26.28759412 51.93092258 14.51074219 29.83349609 C13.0368818 27.06917423 11.55405048 24.30981061 10.0703125 21.55078125 C9.17119384 19.86755117 8.27271977 18.18397657 7.375 16.5 C6.97313477 15.75322998 6.57126953 15.00645996 6.15722656 14.23706055 C3.70191399 9.59554696 1.75101649 4.95191924 0 0 Z " fill="#58B385" transform="translate(366,588)"/>
<path d="M0 0 C4.91627306 4.68705775 8.42757864 9.88125419 11.6875 15.8125 C12.0484375 16.44027344 12.409375 17.06804688 12.78125 17.71484375 C15.26225163 22.59644417 14.97640831 27.49444704 14.6875 32.8125 C11.87493719 32.83934312 9.06262759 32.85926188 6.25 32.875 C5.44755859 32.88337891 4.64511719 32.89175781 3.81835938 32.90039062 C1.77454779 32.9090143 -0.26933902 32.8647815 -2.3125 32.8125 C-3.79338628 31.33161372 -3.71085244 29.80010528 -4.0625 27.75 C-5.78188528 19.90063242 -9.60219072 14.57953805 -16.23046875 10.06640625 C-23.89064876 5.45305206 -31.41080044 4.6455383 -40.3125 5.8125 C-48.31516515 8.37974746 -54.80505275 12.64842881 -59.3125 19.8125 C-60.89380633 23.07697596 -62.17533103 26.37042403 -63.3125 29.8125 C-63.6425 30.8025 -63.9725 31.7925 -64.3125 32.8125 C-65.33093466 43.78154211 -62.89953409 52.43681804 -56.01953125 61.05859375 C-50.34166081 66.89237825 -42.940458 70.07250223 -34.875 70.5 C-29.99747747 70.49408046 -29.99747747 70.49408046 -26.1328125 67.80078125 C-24.63920292 65.5246346 -23.39659077 63.30739382 -22.3125 60.8125 C-23.23933594 60.11382813 -24.16617188 59.41515625 -25.12109375 58.6953125 C-26.33088477 57.77624645 -27.54051171 56.8569644 -28.75 55.9375 C-29.36166016 55.47730469 -29.97332031 55.01710938 -30.60351562 54.54296875 C-35.19921875 51.0390625 -35.19921875 51.0390625 -36.3125 48.8125 C-33.3425 44.8525 -30.3725 40.8925 -27.3125 36.8125 C-23.08620766 37.86907308 -21.67994751 38.91811474 -18.4375 41.6875 C-17.48488281 42.48800781 -16.53226562 43.28851562 -15.55078125 44.11328125 C-15.03596191 44.54592285 -14.52114258 44.97856445 -13.99072266 45.42431641 C-10.91616474 47.96751343 -7.76824509 50.41761211 -4.625 52.875 C-4.00061035 53.36403809 -3.3762207 53.85307617 -2.73291016 54.35693359 C-1.26021628 55.50978127 0.21352379 56.66129231 1.6875 57.8125 C0.99141866 62.30538867 -1.64399247 65.25651254 -4.42163086 68.73144531 C-6.72007384 71.62840023 -8.72869175 74.46600498 -10.51171875 77.7109375 C-12.89985802 81.76741928 -15.18876865 85.36991329 -19.3125 87.8125 C-32.29940257 91.10750631 -45.88944451 88.17661933 -57.546875 82.13671875 C-69.94306361 74.07149666 -78.65097953 64.01916534 -82.65234375 49.46875 C-85.45399654 33.95190376 -83.06060594 20.43350687 -74.16015625 7.28125 C-66.40754541 -3.07741819 -55.89266843 -9.74149955 -43.375 -12.9375 C-27.19285715 -14.25849125 -12.60928379 -10.66352442 0 0 Z " fill="#F8F8F9" transform="translate(312.3125,711.1875)"/>
<path d="M0 0 C2.73083902 -0.13548815 5.45491807 -0.23429855 8.1875 -0.3125 C8.95642578 -0.35439453 9.72535156 -0.39628906 10.51757812 -0.43945312 C14.80469553 -0.53145135 16.45040309 -0.44108746 19.91210938 2.3371582 C22.18944855 5.24161779 24.38761822 8.15999392 26.5 11.1875 C27.3796432 12.43789776 28.25988114 13.68787727 29.140625 14.9375 C29.60404297 15.5975 30.06746094 16.2575 30.54492188 16.9375 C33.08652547 20.54009516 35.6678549 24.11390164 38.25 27.6875 C38.78810303 28.43241699 39.32620605 29.17733398 39.88061523 29.94482422 C44.08294434 35.7524196 48.31452427 41.5382219 52.5625 47.3125 C53.14612305 48.1068042 53.72974609 48.9011084 54.33105469 49.71948242 C57.14916891 53.54153956 59.9960474 57.32034168 63 61 C65.35505634 41.72512138 65.61980326 22.39157941 66 3 C67.68740514 2.97253771 69.3749463 2.95339889 71.0625 2.9375 C72.47208984 2.92009766 72.47208984 2.92009766 73.91015625 2.90234375 C77.33134024 3.01047219 80.62162296 3.46435221 84 4 C84.29276015 21.50597251 83.43814518 38.95219733 82.60931396 56.4319458 C82.42496308 60.34119338 82.24593895 64.25068496 82.06640625 68.16015625 C81.7160178 75.77367955 81.35992818 83.38692107 81 91 C65.97546568 92.01768971 65.97546568 92.01768971 61.71386719 89.82226562 C60.11080021 88.05857282 59.01083316 86.34453834 57.875 84.25 C56.92599859 82.77162251 55.97403122 81.29514587 55.01953125 79.8203125 C54.53693848 79.03430664 54.0543457 78.24830078 53.55712891 77.43847656 C50.81551597 73.14508835 47.66129294 69.16380993 44.5625 65.125 C39.07172734 57.83697903 33.70047078 50.46883885 28.38037109 43.05566406 C24.7034582 37.94207659 20.92927014 32.92316745 17 28 C16.28789404 35.88789283 15.77390168 43.75841094 15.46484375 51.671875 C15.40037804 53.24452118 15.40037804 53.24452118 15.33460999 54.84893799 C15.19986482 58.14920073 15.06861808 61.44959137 14.9375 64.75 C14.84593602 67.00782196 14.75414116 69.26563456 14.66210938 71.5234375 C14.4387416 77.0155207 14.21850796 82.50772139 14 88 C8.06 88 2.12 88 -4 88 C-4.29314001 69.07007659 -3.4664091 50.34262716 -2.14575195 31.47387695 C-1.89800211 27.90619616 -1.66045502 24.33783488 -1.421875 20.76953125 C-0.9575172 13.84568355 -0.48248332 6.92260779 0 0 Z " fill="#F7F8F8" transform="translate(459,772)"/>
<path d="M0 0 C3.45819304 1.47322125 5.55628787 3.40462959 8.125 6.125 C14.82518767 12.95592304 22.33104883 18.58886295 30.0625 24.1875 C30.960896 24.84032959 30.960896 24.84032959 31.87744141 25.50634766 C35.17153945 27.85281607 38.3424256 29.68806751 42.0625 31.3125 C47.05340269 33.92854936 48.26575208 38.23485639 50.02734375 43.35546875 C52.67394043 53.27223462 53.40617642 62.69258089 53.375 72.9375 C53.3737915 73.67021118 53.37258301 74.40292236 53.37133789 75.15783691 C53.21714454 109.62757302 39.17762698 144.19375471 15 169 C14.154375 169.886875 13.30875 170.77375 12.4375 171.6875 C-0.38449024 183.85195228 -0.38449024 183.85195228 -6.3125 184.1875 C-7.199375 184.125625 -8.08625 184.06375 -9 184 C-8.48722445 178.39483282 -6.31103292 174.43952977 -3.625 169.625 C4.26167322 155.02638683 11.44144122 140.02452773 17 124.375 C17.26643311 123.6312915 17.53286621 122.88758301 17.80737305 122.12133789 C22.22759675 109.10933117 23.58063625 96.56624281 23.5 82.9375 C23.49790527 82.12362823 23.49581055 81.30975647 23.49365234 80.47122192 C23.42447275 67.41277216 22.3810455 55.39820249 18 43 C17.72124023 42.18402344 17.44248047 41.36804688 17.15527344 40.52734375 C13.31987029 29.53506984 8.32391345 19.38369399 2.41748047 9.35717773 C1.95873535 8.56770752 1.49999023 7.7782373 1.02734375 6.96484375 C0.61218506 6.2699585 0.19702637 5.57507324 -0.23071289 4.85913086 C-1 3 -1 3 0 0 Z " fill="#F9F9F9" transform="translate(853,466)"/>
<path d="M0 0 C0.66 0 1.32 0 2 0 C1.88807605 4.92465362 0.59385559 7.94368083 -2 12.125 C-20.70314035 42.83509465 -26.83031256 78.11412694 -18.72314453 113.19287109 C-13.29662139 134.25774723 -3.40241467 154.90764723 7.35913086 173.73754883 C9.34948036 177.30751165 10.48023514 179.88257412 10 184 C5.84282186 184.62357672 3.54250627 183.99172719 0.25 181.5625 C-1.18250951 180.39416049 -2.59806967 179.20486183 -4 178 C-4.78632813 177.34644531 -5.57265625 176.69289063 -6.3828125 176.01953125 C-23.18863059 161.55809844 -33.75558282 143.28880894 -42 123 C-42.72509766 121.27910156 -42.72509766 121.27910156 -43.46484375 119.5234375 C-53.2464043 94.60870272 -56.11374727 61.76883633 -45.6328125 36.734375 C-43.85712418 33.76073426 -42.71959814 32.81955668 -39.6875 31.25 C-26.24174303 23.72584821 -13.57343181 13.84023177 -2.8125 2.8125 C-1.4203125 1.4203125 -1.4203125 1.4203125 0 0 Z " fill="#F9FAFA" transform="translate(169,466)"/>
<path d="M0 0 C0.6875 1.75 0.6875 1.75 1 4 C0.51290558 4.59461533 0.02581116 5.18923065 -0.4760437 5.80186462 C-2.41614286 8.60023922 -2.27564931 10.0514528 -2.07080078 13.42016602 C-2.01570343 14.50552139 -1.96060608 15.59087677 -1.90383911 16.7091217 C-1.83502533 17.8789006 -1.76621155 19.0486795 -1.6953125 20.25390625 C-1.60374602 22.74268311 -1.5166493 25.2316277 -1.43359375 27.72070312 C-1.2918851 31.63975627 -1.12577922 35.54997208 -0.88232422 39.46411133 C0.37689414 60.58876913 0.37689414 60.58876913 -3.55160522 66.22680664 C-8.04293417 70.46473802 -13.33415625 72.73576661 -19 75 C-20.8293321 75.94590505 -22.65475014 76.89950487 -24.47265625 77.8671875 C-25.99489465 78.55381282 -27.52480094 79.22373533 -29.0625 79.875 C-29.89410645 80.2373877 -30.72571289 80.59977539 -31.58251953 80.97314453 C-46.80751867 87.46654409 -62.36928163 92 -79 92 C-79 76.49 -79 60.98 -79 45 C-73.72 43.68 -68.44 42.36 -63 41 C-43.98886608 34.17549039 -10.7203446 21.49022775 -0.9375 2.5 C-0.4734375 1.2625 -0.4734375 1.2625 0 0 Z " fill="#0D4A4F" transform="translate(590,452)"/>
<path d="M0 0 C20.43880754 7.4034148 40.75578595 15.08043676 61 23 C59.33333333 28 57.66666667 33 56 38 C50.33292586 37.41918233 45.51692357 35.90134393 40.22265625 33.83984375 C39.41130722 33.53051407 38.59995819 33.22118439 37.76402283 32.90248108 C35.19418741 31.92094338 32.6283497 30.92940379 30.0625 29.9375 C28.31210414 29.26691167 26.56145544 28.5969829 24.81054688 27.92773438 C20.53740185 26.29277194 16.26781097 24.64883326 12 23 C9.35478068 25.64521932 8.55457481 28.66171349 7.375 32.125 C7.14554687 32.78371094 6.91609375 33.44242188 6.6796875 34.12109375 C6.11463758 35.74561226 5.55663723 37.37257971 5 39 C5.52899902 39.14477783 6.05799805 39.28955566 6.60302734 39.4387207 C15.12166579 41.87576751 23.34790112 45.04705509 31.625 48.1875 C33.12097738 48.75226146 34.61707032 49.31671695 36.11328125 49.88085938 C39.74352839 51.2503847 43.37218981 52.62403298 47 54 C46.31204289 57.65393562 45.35966383 60.87178106 43.9375 64.3125 C43.57527344 65.19550781 43.21304688 66.07851563 42.83984375 66.98828125 C42.42412109 67.98408203 42.42412109 67.98408203 42 69 C33.5701388 67.44029 25.74787422 64.49390814 17.75 61.5 C16.38821309 60.99557441 15.02623507 60.49166445 13.6640625 59.98828125 C8.42075351 58.04600647 3.18323712 56.09861456 -2 54 C-2.12246094 54.68449219 -2.24492187 55.36898437 -2.37109375 56.07421875 C-3.08424597 59.39192689 -4.04853865 62.57436537 -5.0625 65.8125 C-5.42472656 66.97394531 -5.78695313 68.13539063 -6.16015625 69.33203125 C-6.43730469 70.21246094 -6.71445312 71.09289062 -7 72 C-6.47680176 72.13897705 -5.95360352 72.2779541 -5.41455078 72.42114258 C3.33572048 74.88802284 11.69299473 78.32067932 20.125 81.6875 C21.66911972 82.30051099 23.21338947 82.91314421 24.7578125 83.52539062 C28.50695169 85.01257879 32.25402537 86.50485976 36 88 C35.25746336 93.48916708 34.06167277 97.89063704 32 103 C26.29964377 102.41511773 21.42894923 100.88131914 16.09375 98.83203125 C15.25138794 98.51473557 14.40902588 98.19743988 13.5411377 97.87052917 C10.85818095 96.85785212 8.17915352 95.83519023 5.5 94.8125 C3.73200625 94.14455883 1.96377884 93.4772358 0.1953125 92.81054688 C-9.91680474 88.98854161 -19.98132485 85.06077308 -30 81 C-29.45015141 76.18598076 -28.45824392 72.08544157 -26.6640625 67.58984375 C-26.18203369 66.36692627 -25.70000488 65.14400879 -25.20336914 63.8840332 C-24.94621124 63.24116364 -24.68905334 62.59829407 -24.42410278 61.9359436 C-23.04919136 58.49748363 -21.6989872 55.0493434 -20.34765625 51.6015625 C-20.06935471 50.89290543 -19.79105316 50.18424835 -19.50431824 49.45411682 C-16.09594997 40.74299304 -12.91386623 31.94981869 -9.74267578 23.15014648 C-2.12602594 2.12602594 -2.12602594 2.12602594 0 0 Z " fill="#F8F8F8" transform="translate(368,747)"/>
<path d="M0 0 C2.92197806 3.71888117 3.98796936 7.24206984 4.0625 11.9375 C3.08250799 17.6445123 1.28917597 23.17808694 -0.40234375 28.70703125 C-2.77135518 36.47390626 -4.93997745 44.29979438 -7.14477539 52.11450195 C-8.75160289 57.77274232 -10.42851657 63.37551368 -12.33544922 68.93945312 C-13.40389344 72.25233674 -14.19952562 75.61337761 -15 79 C-12.3912893 77.9165202 -9.7828698 76.83234759 -7.17480469 75.74731445 C-4.97026333 74.83049535 -2.76518218 73.91497316 -0.55957031 73.00073242 C4.17188518 71.03489033 8.89834555 69.0688399 13.5703125 66.96484375 C14.20694824 66.68012207 14.84358398 66.39540039 15.49951172 66.10205078 C17.13398716 65.36482713 18.76255413 64.61454281 20.390625 63.86328125 C23 63 23 63 25.1875 62.984375 C28.06694592 64.59785763 28.5880494 66.92144922 29.75 69.9375 C30.17796875 71.01902344 30.6059375 72.10054687 31.046875 73.21484375 C32 76 32 76 32 78 C24.79458665 81.09601561 17.58632168 84.18528228 10.37539673 87.26843262 C5.98559305 89.14658729 1.60020066 91.03470632 -2.78285217 92.92855835 C-5.78646764 94.22481647 -8.79265194 95.5150416 -11.79934692 96.80413818 C-13.26389157 97.43361353 -14.72733989 98.06564591 -16.18966675 98.70025635 C-18.2486379 99.59332882 -20.31129413 100.47730987 -22.375 101.359375 C-23.55835938 101.86952148 -24.74171875 102.37966797 -25.9609375 102.90527344 C-29 104 -29 104 -33 104 C-38.70054316 94.8370464 -38.70054316 94.8370464 -37.5625 89.625 C-37.08186822 88.07033072 -36.55833857 86.5284834 -36 85 C-35.41467544 83.27150635 -34.83153953 81.54227077 -34.25 79.8125 C-33.90453125 78.80703125 -33.5590625 77.8015625 -33.203125 76.765625 C-31.64962839 71.90338235 -30.32394101 66.99142379 -29 62.0625 C-27.12546136 55.08582926 -25.18947974 48.15030695 -23.0078125 41.26196289 C-21.91638621 37.72936921 -20.89355901 34.18148565 -19.8828125 30.625 C-19.35131592 28.75714844 -19.35131592 28.75714844 -18.80908203 26.8515625 C-18.40858643 25.44003906 -18.40858643 25.44003906 -18 24 C-18.9379541 24.41362793 -19.8759082 24.82725586 -20.84228516 25.25341797 C-24.34109917 26.79550948 -27.8414599 28.33406254 -31.34228516 29.87158203 C-32.85377359 30.53599032 -34.3648477 31.20134202 -35.87548828 31.86767578 C-38.0539146 32.8283661 -40.23383593 33.785591 -42.4140625 34.7421875 C-43.08305573 35.03809784 -43.75204895 35.33400818 -44.4413147 35.6388855 C-48.24048647 37.30130328 -52.04501183 38.75302809 -56 40 C-57.00696568 37.89915791 -58.0053589 35.79420511 -59 33.6875 C-59.556875 32.51574219 -60.11375 31.34398437 -60.6875 30.13671875 C-62 27 -62 27 -62 24 C-61.35901367 23.72961914 -60.71802734 23.45923828 -60.05761719 23.18066406 C-45.71210043 17.12682555 -31.38307219 11.03703023 -17.07910156 4.88574219 C-15.96374023 4.4065332 -14.84837891 3.92732422 -13.69921875 3.43359375 C-12.71783936 3.01134521 -11.73645996 2.58909668 -10.7253418 2.15405273 C-9.825979 1.77321533 -8.92661621 1.39237793 -8 1 C-7.11932861 0.59918213 -6.23865723 0.19836426 -5.33129883 -0.21459961 C-3 -1 -3 -1 0 0 Z " fill="#F8F8F8" transform="translate(676,741)"/>
<path d="M0 0 C2.62739222 1.326703 4.26687866 3.04343084 6.28515625 5.18359375 C10.01357593 9.04781679 13.84208952 12.56860221 17.97265625 15.99609375 C9.5929901 35.6510175 -26.33840459 51.27620418 -45.02734375 58.99609375 C-63.73387819 66.15521367 -81.91442524 70.99609375 -102.02734375 70.99609375 C-102.02734375 62.08609375 -102.02734375 53.17609375 -102.02734375 43.99609375 C-104.33734375 43.99609375 -106.64734375 43.99609375 -109.02734375 43.99609375 C-109.02734375 43.66609375 -109.02734375 43.33609375 -109.02734375 42.99609375 C-107.76921875 42.95871094 -106.51109375 42.92132812 -105.21484375 42.8828125 C-67.39602018 41.5407703 -32.421801 26.84203351 -4.26171875 1.48046875 C-2.02734375 -0.00390625 -2.02734375 -0.00390625 0 0 Z " fill="#3A9D90" transform="translate(613.02734375,573.00390625)"/>
<path d="M0 0 C0.49177734 0.24121582 0.98355469 0.48243164 1.49023438 0.73095703 C19.41602296 9.48163795 36.48329759 15.76974505 56 20 C56.8353125 20.19851563 57.670625 20.39703125 58.53125 20.6015625 C62.43725255 21.23196165 66.36390431 21.37239397 70.3125 21.5625 C71.56643555 21.62727539 71.56643555 21.62727539 72.84570312 21.69335938 C74.89696935 21.79885307 76.9484648 21.89987315 79 22 C78.51391769 22.40845657 78.02783539 22.81691315 77.52702332 23.23774719 C75.65907893 25.39343808 75.60990097 26.38059562 75.56762695 29.19604492 C75.54783279 30.03668991 75.52803864 30.8773349 75.50764465 31.74345398 C75.50125473 32.64666885 75.49486481 33.54988373 75.48828125 34.48046875 C75.46135445 35.87245232 75.46135445 35.87245232 75.43388367 37.29255676 C75.37968709 40.25749157 75.345855 43.22226455 75.3125 46.1875 C75.27933518 48.19728819 75.24484631 50.207055 75.20898438 52.21679688 C75.12395521 57.14441465 75.05718862 62.07198364 75 67 C65.89111462 67.21735176 57.37042153 67.24967467 48.5 64.875 C47.17210449 64.5361377 47.17210449 64.5361377 45.81738281 64.19042969 C37.63230805 62.03273418 29.74462958 59.41542658 22 56 C20.87658203 55.51273438 20.87658203 55.51273438 19.73046875 55.015625 C4.71537855 48.34225158 4.71537855 48.34225158 2 41.9375 C1.375 39.65234375 1.375 39.65234375 1 37 C0.81566406 35.88753906 0.63132812 34.77507813 0.44140625 33.62890625 C-0.33946271 27.1198821 -0.10415889 20.54365087 -0.0625 14 C-0.05747487 12.63932456 -0.05291376 11.27864733 -0.04882812 9.91796875 C-0.03710459 6.61193275 -0.02069427 3.30598999 0 0 Z " fill="#134A43" transform="translate(436,549)"/>
<path d="M0 0 C3.25207092 1.41738489 5.31361067 3.12526412 7.75 5.6875 C11.64729007 9.69467606 15.75613275 13.36726505 20 17 C15.79894904 22.202236 11.4716405 26.31500601 6.125 30.3125 C5.3832251 30.87155029 4.6414502 31.43060059 3.87719727 32.0065918 C-23.93735534 52.68542752 -56.90002018 68 -92 68 C-92 59.09 -92 50.18 -92 41 C-89.875625 40.7525 -87.75125 40.505 -85.5625 40.25 C-56.48038292 36.40390279 -28.15229331 24.49581911 -6 5 C-4.79387022 3.99734333 -3.58582252 2.99698459 -2.375 2 C-1.59125 1.34 -0.8075 0.68 0 0 Z " fill="#399C90" transform="translate(603,503)"/>
<path d="M0 0 C1.79771748 11.18154772 3.32141807 22.36746145 4.5625 33.625 C4.6972876 34.78322266 4.8320752 35.94144531 4.97094727 37.13476562 C5.53415275 42.08340377 6.0588017 46.96621465 6.10546875 51.94921875 C6.4302328 65.55355501 13.51320031 74.36003744 21.76831055 84.81201172 C23 87 23 87 22.84228516 89.16772461 C21.5208273 92.04237424 19.34807379 93.06296421 16.6875 94.6875 C15.72199219 95.28949219 14.75648438 95.89148438 13.76171875 96.51171875 C11.42370467 97.77166693 9.58992841 98.53861133 7 99 C6.41605469 98.05253906 6.41605469 98.05253906 5.8203125 97.0859375 C4.28029579 94.62333013 2.70364764 92.18758745 1.11889648 89.75366211 C0.03688986 88.057818 -0.99541497 86.33057739 -2.02563477 84.6027832 C-8.31609331 74.49702772 -15.2608985 70.32547532 -26.0625 65.8125 C-27.56652497 65.14941365 -29.06895464 64.48269784 -30.56982422 63.8125 C-34.31644967 62.14922628 -38.08056413 60.53071611 -41.85125732 58.9229126 C-45.17671708 57.49458489 -48.48114438 56.02007979 -51.78515625 54.54296875 C-57.50779375 51.99177978 -63.245297 49.47796391 -69 47 C-69 46.01 -69 45.02 -69 44 C-66.734375 42.0625 -66.734375 42.0625 -63.75 40 C-62.77546875 39.319375 -61.8009375 38.63875 -60.796875 37.9375 C-59.41242187 36.9784375 -59.41242187 36.9784375 -58 36 C-57.01773438 35.071875 -57.01773438 35.071875 -56.015625 34.125 C-54 33 -54 33 -51.36889648 33.68725586 C-47.47693637 35.20382007 -43.80081854 36.98392937 -40.08203125 38.87890625 C-39.34297043 39.25103745 -38.60390961 39.62316864 -37.842453 40.00657654 C-35.49718533 41.18806679 -33.1546814 42.37490488 -30.8125 43.5625 C-28.45925677 44.75294725 -26.1054318 45.94220614 -23.75041199 47.12913513 C-22.28909851 47.86590387 -20.82885964 48.60480879 -19.36982727 49.34608459 C-16.60383 50.74274542 -13.94437391 52.01854203 -11 53 C-11.11593506 52.25427734 -11.23187012 51.50855469 -11.35131836 50.74023438 C-11.88125801 47.3270099 -12.40939296 43.91350848 -12.9375 40.5 C-13.21110352 38.74042969 -13.21110352 38.74042969 -13.49023438 36.9453125 C-16.1468704 19.74963204 -16.1468704 19.74963204 -16.0625 13 C-16.05347656 12.05125 -16.04445313 11.1025 -16.03515625 10.125 C-16.02355469 9.42375 -16.01195312 8.7225 -16 8 C-13.71125827 6.66141476 -11.41930344 5.32898986 -9.125 4 C-8.47402344 3.6184375 -7.82304688 3.236875 -7.15234375 2.84375 C-2.2265625 0 -2.2265625 0 0 0 Z " fill="#F8F8F8" transform="translate(763,692)"/>
<path d="M0 0 C0.70793701 0.25168945 1.41587402 0.50337891 2.14526367 0.76269531 C19.96574557 7.06248004 19.96574557 7.06248004 38.3125 11.5 C39.09069092 11.64727539 39.86888184 11.79455078 40.6706543 11.94628906 C47.79891692 13.16874893 54.70342355 13.47881597 62 14 C62 41.72 62 69.44 62 98 C57.75139977 95.87569988 57.01176404 94.94454164 54.64453125 91.046875 C54.02682861 90.04237305 53.40912598 89.03787109 52.77270508 88.00292969 C52.1258374 86.92946289 51.47896973 85.85599609 50.8125 84.75 C49.45903872 82.54123427 48.10487623 80.33289807 46.75 78.125 C46.1003125 77.06023437 45.450625 75.99546875 44.78125 74.8984375 C42.67890381 71.47751454 40.50980959 68.11059114 38.3125 64.75 C34.27377762 58.51040082 30.4696884 52.14176111 26.66479492 45.75756836 C23.06080787 39.72686233 19.37824022 33.75144028 15.625 27.8125 C15.14957764 27.0594458 14.67415527 26.3063916 14.18432617 25.53051758 C11.3097974 21.00118572 8.36164381 16.52945963 5.34667969 12.09228516 C0 3.7853517 0 3.7853517 0 0 Z " fill="#134842" transform="translate(449,630)"/>
<path d="M0 0 C2.94177259 2.76872714 5.48359601 5.55324779 7.875 8.8125 C8.390625 9.49957031 8.90625 10.18664062 9.4375 10.89453125 C10.44219136 12.24835286 11.42368124 13.61987454 12.375 15.01171875 C17.47986155 21.77831909 24.59599389 24.69977964 32.11767578 28.13134766 C34.7766845 29.35842328 37.38830925 30.67581982 40 32 C37.60915001 35.43034999 35.01015272 37.84035565 31.6875 40.3125 C20.34532823 48.97717548 14.46418627 60.26480531 11 74 C10.01 74 9.02 74 8 74 C6.38295692 71.96603974 4.9668052 69.98577365 3.5625 67.8125 C-4.57658802 55.50092841 -13.10526262 49.24737607 -27 44 C-28.6677658 43.33608776 -30.33480163 42.67032575 -32 42 C-28.43659213 39.10350516 -24.78048901 36.38148689 -21.0625 33.6875 C-11.8455485 26.72960524 -8.07813205 20.78863695 -4 10 C-3.23232616 8.08206569 -2.46176356 6.16528355 -1.6875 4.25 C-1.12409488 2.83369305 -0.56122525 1.41717215 0 0 Z " fill="#207574" transform="translate(249,585)"/>
<path d="M0 0 C0.66 0 1.32 0 2 0 C2.17015625 0.54825439 2.3403125 1.09650879 2.515625 1.66137695 C8.47064442 20.53015691 15.58702269 30.9511598 32 42 C29.51648319 44.48351681 27.37700166 45.03274496 24.0625 46.1875 C8.9928259 51.88233817 1.1204533 60.28816058 -7.30078125 73.65625 C-8.14189453 74.81640625 -8.14189453 74.81640625 -9 76 C-9.66 76 -10.32 76 -11 76 C-11.21914063 75.04480469 -11.43828125 74.08960938 -11.6640625 73.10546875 C-15.74354518 56.13772844 -23.19834923 46.16932031 -37.09375 35.6640625 C-37.7228125 35.11492188 -38.351875 34.56578125 -39 34 C-39 33.34 -39 32.68 -39 32 C-37.94941406 31.64808594 -36.89882813 31.29617188 -35.81640625 30.93359375 C-20.34045776 25.57206565 -10.66995355 17.54887478 -2.0625 3.3125 C-1.381875 2.219375 -0.70125 1.12625 0 0 Z " fill="#3A9C8D" transform="translate(774,584)"/>
<path d="M0 0 C2.57495386 2.46290306 4.02001539 4.74160959 5.625 7.9375 C10.30069715 16.68855787 16.2160782 24.22091619 23.125 31.3125 C26.93956032 35.5078483 26.93956032 35.5078483 27.4375 39.5625 C23.58643558 48.7715671 17.56713578 54.66225883 10 61 C8.96570204 61.88229251 7.93186066 62.7651205 6.8984375 63.6484375 C-6.48952901 75 -6.48952901 75 -11 75 C-14.52243316 59.7773004 -13.22933763 40.97051257 -9 26 C-8.60692398 24.46416689 -8.21646865 22.92766153 -7.828125 21.390625 C-7.40912642 19.78049873 -6.98728301 18.1711099 -6.5625 16.5625 C-6.36954346 15.82813721 -6.17658691 15.09377441 -5.9777832 14.3371582 C-4.54263444 9.19507812 -2.50427792 4.71612424 0 0 Z " fill="#F9F9F9" transform="translate(427,331)"/>
<path d="M0 0 C3 1 3 1 3.82788086 2.61621094 C4.03807861 3.31520508 4.24827637 4.01419922 4.46484375 4.734375 C4.82618408 5.91966797 4.82618408 5.91966797 5.19482422 7.12890625 C5.43990723 7.99386719 5.68499023 8.85882813 5.9375 9.75 C6.19547363 10.65105469 6.45344727 11.55210937 6.71923828 12.48046875 C7.50852388 15.31344905 8.26262463 18.15308987 9 21 C9.21897949 21.84240234 9.43795898 22.68480469 9.66357422 23.55273438 C13.05412095 37.15807863 18.48943766 61.46219576 11 74 C6.62471097 73.47746103 4.38620057 72.02980172 1.0625 69.1875 C0.11117187 68.37796875 -0.84015625 67.5684375 -1.8203125 66.734375 C-2.32981445 66.29416016 -2.83931641 65.85394531 -3.36425781 65.40039062 C-5.09757887 63.91646083 -6.85476125 62.46483491 -8.6171875 61.015625 C-23.85938741 48.39085377 -23.85938741 48.39085377 -25.8828125 40.6015625 C-26.02955792 36.09158667 -25.05915304 34.97334751 -22.0625 31.6875 C-21.22847656 30.73617188 -20.39445313 29.78484375 -19.53515625 28.8046875 C-18.69855469 27.87914062 -17.86195313 26.95359375 -17 26 C-10.00946673 17.99194109 -4.99802026 9.32501002 0 0 Z " fill="#D8D9DD" transform="translate(595,331)"/>
<path d="M0 0 C0.12528076 0.68698975 0.25056152 1.37397949 0.37963867 2.08178711 C2.66619461 14.59303308 4.98600611 27.09473358 7.5 39.5625 C7.70149658 40.56692139 7.90299316 41.57134277 8.1105957 42.60620117 C8.97572103 46.91742619 9.84251407 51.22823369 10.72167969 55.53662109 C11.44832701 59.10602411 12.16259171 62.67773138 12.875 66.25 C13.10251953 67.35158447 13.33003906 68.45316895 13.56445312 69.58813477 C13.76748047 70.61608154 13.97050781 71.64402832 14.1796875 72.703125 C14.36257324 73.60708008 14.54545898 74.51103516 14.73388672 75.44238281 C15.02045189 78.19656333 14.67892939 80.32878268 14 83 C12.10507994 83.33848652 10.20901534 83.67056911 8.3125 84 C7.25675781 84.185625 6.20101562 84.37125 5.11328125 84.5625 C2.34438562 84.95160453 -0.21291723 85.03305658 -3 85 C-12.44372835 38.19333295 -12.44372835 38.19333295 -16.375 15.75 C-16.62648804 14.32179932 -16.62648804 14.32179932 -16.88305664 12.86474609 C-17.03250732 11.99672363 -17.18195801 11.12870117 -17.3359375 10.234375 C-17.46532715 9.48381836 -17.5947168 8.73326172 -17.72802734 7.95996094 C-18 6 -18 6 -18 3 C-15.75113762 2.49490792 -13.50086131 1.99610821 -11.25 1.5 C-9.37054687 1.08234375 -9.37054687 1.08234375 -7.453125 0.65625 C-4 0 -4 0 0 0 Z " fill="#F7F8F8" transform="translate(589,773)"/>
<path d="M0 0 C6.81030168 -0.16667818 13.29900425 0.27168904 20.03125 1.27734375 C20.94781372 1.40814835 21.86437744 1.53895294 22.80871582 1.67372131 C25.70680062 2.0884231 28.60341356 2.51247057 31.5 2.9375 C34.39680475 3.35723912 37.29388578 3.77494572 40.19128418 4.19056702 C41.98375795 4.44824546 43.77586357 4.70850431 45.56750488 4.97190857 C51.36560316 5.81269771 57.16612867 6.46211054 63 7 C63.33 6.01 63.66 5.02 64 4 C65.32 5.32 66.64 6.64 68 8 C67.04480469 8.35191406 66.08960938 8.70382812 65.10546875 9.06640625 C48.20120934 15.45158212 38.36386956 23.31432886 28.69921875 38.65625 C27.85810547 39.81640625 27.85810547 39.81640625 27 41 C26.34 41 25.68 41 25 41 C24.78085937 40.04480469 24.56171875 39.08960938 24.3359375 38.10546875 C20.74388897 23.16510707 14.71905111 13.55328701 3 3.5625 C2.01 2.716875 1.02 1.87125 0 1 C0 0.67 0 0.34 0 0 Z " fill="#247978" transform="translate(738,619)"/>
<path d="M0 0 C0.66 0.33 1.32 0.66 2 1 C3.39705689 6.28379256 3.5969645 11.82220089 4.0625 17.25 C4.15337891 18.24902344 4.24425781 19.24804688 4.33789062 20.27734375 C4.85370731 26.21117479 5.09267358 32.04417774 5 38 C1.39746678 38.51224726 -2.20722337 39.00746375 -5.8125 39.5 C-6.81732422 39.64308594 -7.82214844 39.78617188 -8.85742188 39.93359375 C-15.61560643 40.84627462 -22.18305219 41.18176284 -29 41 C-25.90390262 37.69749613 -22.6615521 34.93971631 -19.0625 32.1875 C-10.33326908 25.19118307 -6.90726926 17.96616297 -3.296875 7.609375 C-2.33326449 4.92751923 -1.36069474 2.4903281 0 0 Z " fill="#7ACB81" transform="translate(249,585)"/>
<path d="M0 0 C1.36277556 3.85482931 0.76338583 7.17375329 0.22265625 11.171875 C0.08735756 12.1955014 0.08735756 12.1955014 -0.05067444 13.23980713 C-0.33927291 15.41087837 -0.63823326 17.58037621 -0.9375 19.75 C-1.13545162 21.22516853 -1.33272499 22.70042824 -1.52929688 24.17578125 C-2.01167665 27.78494397 -2.50335685 31.39276909 -3 35 C-11.30678977 34.43778969 -19.59380099 33.79879574 -27.875 32.9375 C-28.76574219 32.84662109 -29.65648437 32.75574219 -30.57421875 32.66210938 C-32.71633916 32.44329062 -34.85820041 32.22193698 -37 32 C-37.33 31.01 -37.66 30.02 -38 29 C-36.94941406 28.64808594 -35.89882813 28.29617188 -34.81640625 27.93359375 C-20.85000915 23.09503859 -13.09290829 16.78774727 -4 5 C-2.6691909 3.33131708 -1.33662742 1.66402605 0 0 Z " fill="#7CCD82" transform="translate(773,587)"/>
<path d="M0 0 C2.31741574 11.14566618 3.41361006 21.61806391 3 33 C2.34 33 1.68 33 1 33 C-0.3337216 31.31886306 -1.59271116 29.57804522 -2.8125 27.8125 C-10.76253161 16.65105526 -19.29708233 10.83586935 -32 6 C-33.6676064 5.33568749 -35.33459615 4.66981508 -37 4 C-33.71473734 1.80982489 -33.11568906 1.81470271 -29.375 2 C-23.49034967 2.12570682 -17.83492741 1.48533986 -12.01513672 0.7109375 C-7.97732658 0.18447099 -4.07181123 -0.10227469 0 0 Z " fill="#379789" transform="translate(254,623)"/>
<path d="M0 0 C2.22638148 2.15738205 4.05070473 4.07786799 5.75 6.6875 C12.35398267 16.61848909 19.45194996 21.3312161 30.13378906 26.14746094 C32.79130942 27.361493 35.39524757 28.67733755 38 30 C38 30.33 38 30.66 38 31 C33.85595766 31.67812422 29.7095274 32.34039758 25.5625 33 C24.39783203 33.19078125 23.23316406 33.3815625 22.03320312 33.578125 C15.59939149 34.59303613 9.51265558 35.22289303 3 35 C1.34409322 23.34434551 0.48576253 11.76056645 0 0 Z " fill="#3A9B90" transform="translate(251,587)"/>
<path d="M0 0 C7.19459857 -0.21120322 14.02087575 0.39247501 21.125 1.5 C22.55972656 1.71462891 22.55972656 1.71462891 24.0234375 1.93359375 C26.35002216 2.28258145 28.67539156 2.63812333 31 3 C31.18390539 9.93453342 30.70243347 16.5270815 29.625 23.375 C29.49867188 24.25027344 29.37234375 25.12554688 29.2421875 26.02734375 C28.62149298 30.09289283 27.99750502 33.36245991 26 37 C25.34 37 24.68 37 24 37 C23.78085937 36.17757812 23.56171875 35.35515625 23.3359375 34.5078125 C19.26995565 20.19423411 12.60295216 11.46704199 1.28515625 2.1640625 C0.64900391 1.58785156 0.64900391 1.58785156 0 1 C0 0.67 0 0.34 0 0 Z " fill="#369587" transform="translate(738,619)"/>
<path d="M0 0 C3.11141288 1.6437653 5.28893717 3.03036886 7.375 5.875 C8.23855538 8.81108828 8.36658209 10.94514926 8 14 C5.96006092 17.6578218 4.49580738 19.66946174 1 22 C-2.11678523 22.67085092 -4.88402654 22.68360642 -8 22 C-11.41382884 19.71717543 -13.48481393 16.94501408 -14.5390625 12.96484375 C-14.82399746 9.07323205 -13.99592519 6.52084844 -11.625 3.5625 C-7.68567941 -0.28302724 -5.48402115 -0.45700176 0 0 Z " fill="#F3F3F4" transform="translate(579,743)"/>
<path d="M0 0 C2.34752466 0.93045201 3.57380419 1.97692436 5.34492493 3.76982117 C5.96526611 4.39038895 6.5856073 5.01095673 7.2247467 5.65032959 C7.88218872 6.32325546 8.53963074 6.99618134 9.21699524 7.6894989 C10.24062164 8.71949257 10.24062164 8.71949257 11.28492737 9.77029419 C13.4621322 11.9642868 15.62867305 14.16848181 17.79512024 16.37309265 C19.26968995 17.86270899 20.74494237 19.35164985 22.22090149 20.83988953 C25.836942 24.48900073 29.44345312 28.14729644 33.04512024 31.81059265 C32.05512024 32.30559265 32.05512024 32.30559265 31.04512024 32.81059265 C30.55012024 33.80059265 30.55012024 33.80059265 30.04512024 34.81059265 C27.02001066 31.81487941 24.00084149 28.8132446 20.98262024 25.81059265 C20.13506165 24.97141296 19.28750305 24.13223328 18.41426086 23.2676239 C13.94272494 18.81335259 9.61009189 14.31050717 5.51997375 9.5019989 C2.36730769 5.84849503 2.36730769 5.84849503 -1.95487976 3.81059265 C-2.30147644 4.6472345 -2.30147644 4.6472345 -2.65507507 5.5007782 C-4.30179859 8.42708383 -6.3540087 10.41612451 -8.75175476 12.7676239 C-9.45863434 13.46670113 -9.45863434 13.46670113 -10.17979431 14.17990112 C-11.68345815 15.66582385 -13.19362675 17.14489227 -14.70487976 18.62309265 C-23.66013868 27.40738321 -23.66013868 27.40738321 -31.95487976 36.81059265 C-32.44987976 35.32559265 -32.44987976 35.32559265 -32.95487976 33.81059265 C-34.96996334 33.07735469 -34.96996334 33.07735469 -36.95487976 32.81059265 C-35.55514018 31.9316864 -34.15540059 31.05278015 -32.75566101 30.1738739 C-28.71886796 27.11782016 -25.34414952 23.19293603 -21.83181763 19.5592804 C-19.74502357 17.40522195 -17.6445037 15.26475031 -15.54350281 13.1245575 C-14.43650093 11.99218444 -13.3339953 10.85539951 -12.23588562 9.71440125 C-10.64209062 8.06019035 -9.03287894 6.42246303 -7.41972351 4.78715515 C-6.93108322 4.27270844 -6.44244293 3.75826172 -5.93899536 3.22822571 C-2.4738951 -0.23969449 -2.4738951 -0.23969449 0 0 Z " fill="#132929" transform="translate(511.9548797607422,315.1894073486328)"/>
<path d="M0 0 C0 2 0 2 -1.5 3.625 C-1.995 4.07875 -2.49 4.5325 -3 5 C-0.69 5.66 1.62 6.32 4 7 C0.45049966 8.16306443 -2.55823948 7.92365049 -6.25 7.5625 C-7.32765625 7.46066406 -8.4053125 7.35882812 -9.515625 7.25390625 C-10.33546875 7.17011719 -11.1553125 7.08632813 -12 7 C-12.33 6.01 -12.66 5.02 -13 4 C-11.2097939 3.32942113 -9.41778511 2.6636531 -7.625 2 C-6.62726562 1.62875 -5.62953125 1.2575 -4.6015625 0.875 C-2 0 -2 0 0 0 Z " fill="#69B187" transform="translate(748,612)"/>
<path d="M0 0 C0.33 0.99 0.66 1.98 1 3 C-3.58268785 7.69237984 -8.24946614 12.19680577 -13.23828125 16.45703125 C-14.89815811 17.91080366 -16.45933981 19.42141586 -18 21 C-18.66 20.67 -19.32 20.34 -20 20 C-13.4 13.4 -6.8 6.8 0 0 Z " fill="#43938A" transform="translate(609,633)"/>
<path d="M0 0 C0.66 0.33 1.32 0.66 2 1 C1.67 1.33 1.34 1.66 1 2 C1.66 2.66 2.32 3.32 3 4 C0.69 6.64 -1.62 9.28 -4 12 C-4.33 11.01 -4.66 10.02 -5 9 C-7.01508358 8.26676204 -7.01508358 8.26676204 -9 8 C-8.071875 7.4225 -7.14375 6.845 -6.1875 6.25 C-3.40184158 4.28365288 -1.81261304 2.81962028 0 0 Z " fill="#243632" transform="translate(484,340)"/>
<path d="M0 0 C3.33557632 2.9905167 5.15083921 5.93184627 7 10 C4.525 9.01 4.525 9.01 2 8 C2.165 9.27875 2.33 10.5575 2.5 11.875 C3.07041736 16.9284158 3.09543708 21.92062649 3 27 C2.67 27 2.34 27 2 27 C1.66382774 23.25024882 1.33155554 19.50016199 1 15.75 C0.90460938 14.68652344 0.80921875 13.62304688 0.7109375 12.52734375 C0.62070313 11.50253906 0.53046875 10.47773437 0.4375 9.421875 C0.31181641 8.00793457 0.31181641 8.00793457 0.18359375 6.56542969 C0.02731493 4.3816825 0 2.18933206 0 0 Z " fill="#3F9A82" transform="translate(251,587)"/>
<path d="M0 0 C7.48291572 6.15034169 7.48291572 6.15034169 10 10 C8.68 10.33 7.36 10.66 6 11 C4.80040625 9.74057614 3.61560557 8.46704714 2.4375 7.1875 C1.44556641 6.12595703 1.44556641 6.12595703 0.43359375 5.04296875 C-0.03949219 4.36878906 -0.51257813 3.69460938 -1 3 C-0.67 2.01 -0.34 1.02 0 0 Z " fill="#193134" transform="translate(523,326)"/>
<path d="M0 0 C0 3 0 3 -1.46875 4.80932617 C-2.1390625 5.46392822 -2.809375 6.11853027 -3.5 6.79296875 C-4.221875 7.50517578 -4.94375 8.21738281 -5.6875 8.95117188 C-6.450625 9.68916016 -7.21375 10.42714844 -8 11.1875 C-9.1446875 12.31188477 -9.1446875 12.31188477 -10.3125 13.45898438 C-12.20180839 15.31286823 -14.09775206 17.15941069 -16 19 C-16.66 18.67 -17.32 18.34 -18 18 C-12 12 -6 6 0 0 Z " fill="#09292C" transform="translate(553,725)"/>
<path d="M0 0 C0 4.38968456 -2.12805101 5.76905739 -5 9 C-2.36 8.67 0.28 8.34 3 8 C1 10 1 10 -1.3828125 10.1953125 C-2.28773438 10.17210937 -3.19265625 10.14890625 -4.125 10.125 C-5.49011719 10.09792969 -5.49011719 10.09792969 -6.8828125 10.0703125 C-7.58148438 10.04710937 -8.28015625 10.02390625 -9 10 C-7.61811547 6.78956118 -6.07578097 4.95063635 -3.375 2.75 C-2.74335938 2.22921875 -2.11171875 1.7084375 -1.4609375 1.171875 C-0.73777344 0.59179688 -0.73777344 0.59179688 0 0 Z " fill="#539E8A" transform="translate(392,715)"/>
<path d="M0 0 C0.66 0.33 1.32 0.66 2 1 C3.02273507 4.62138266 3.10762232 8.06734756 3.0625 11.8125 C3.05347656 12.78832031 3.04445312 13.76414062 3.03515625 14.76953125 C3.02355469 15.50558594 3.01195312 16.24164062 3 17 C2.67 17 2.34 17 2 17 C1.90912109 16.04287109 1.90912109 16.04287109 1.81640625 15.06640625 C1.73261719 14.24011719 1.64882812 13.41382813 1.5625 12.5625 C1.48128906 11.73878906 1.40007812 10.91507813 1.31640625 10.06640625 C1.21069185 8.01337975 1.21069185 8.01337975 0 7 C-0.33 7.66 -0.66 8.32 -1 9 C-1.66 9 -2.32 9 -3 9 C-2.01 6.03 -1.02 3.06 0 0 Z " fill="#6CB889" transform="translate(249,585)"/>
<path d="M0 0 C0 4.0521288 -1.50488362 5.09105379 -4.1875 8.0625 C-4.96480469 8.94035156 -5.74210937 9.81820313 -6.54296875 10.72265625 C-8.99164656 12.99225746 -10.84446143 14.00793903 -14 15 C-9.59156563 9.70987876 -4.92440206 4.81191572 0 0 Z " fill="#78B57E" transform="translate(504,326)"/>
<path d="M0 0 C0 0.99 0 1.98 0 3 C-2 4.6875 -2 4.6875 -4 6 C-1.525 6.99 -1.525 6.99 1 8 C1 8.33 1 8.66 1 9 C-2.63 9 -6.26 9 -10 9 C-6.83047153 5.73991357 -3.60062011 2.77762123 0 0 Z " fill="#70BB87" transform="translate(230,617)"/>
<path d="M0 0 C0.66 0.33 1.32 0.66 2 1 C-2.29 5.29 -6.58 9.58 -11 14 C-11 10.30159372 -10.17133056 9.68584567 -7.75 7 C-7.14671875 6.319375 -6.5434375 5.63875 -5.921875 4.9375 C-4.06233388 3.06284066 -2.15205789 1.52358081 0 0 Z " fill="#0C2A30" transform="translate(784,636)"/>
<path d="M0 0 C0.33 0.66 0.66 1.32 1 2 C4.63 2 8.26 2 12 2 C11.01 3.485 11.01 3.485 10 5 C7.3984375 5.29296875 7.3984375 5.29296875 4.375 5.1875 C2.87066406 5.14689453 2.87066406 5.14689453 1.3359375 5.10546875 C0.17964844 5.05326172 0.17964844 5.05326172 -1 5 C-0.67 3.35 -0.34 1.7 0 0 Z " fill="#75B0A2" transform="translate(645,586)"/>
<path d="M0 0 C0.66 0 1.32 0 2 0 C3.74685308 3.82745451 4.34886333 7.12442723 4.625 11.3125 C4.69976563 12.38113281 4.77453125 13.44976562 4.8515625 14.55078125 C4.90054688 15.35902344 4.94953125 16.16726563 5 17 C1.67289832 12.00934748 -0.58827908 6.07888388 0 0 Z " fill="#3D4242" transform="translate(756,438)"/>
<path d="M0 0 C-4.75 4.875 -4.75 4.875 -7 6 C-7.33 5.01 -7.66 4.02 -8 3 C-10.97 2.505 -10.97 2.505 -14 2 C-14 1.67 -14 1.34 -14 1 C-4.58997722 -0.14806378 -4.58997722 -0.14806378 0 0 Z " fill="#2C7B77" transform="translate(288,618)"/>
<path d="M0 0 C0.66 0 1.32 0 2 0 C2.24042276 4.08718695 1.42258812 7.17679443 0 11 C-0.66 10.01 -1.32 9.02 -2 8 C-2.66 8 -3.32 8 -4 8 C-2.87548273 5.0280615 -1.77706209 2.66559313 0 0 Z " fill="#424B4E" transform="translate(267,438)"/>
<path d="M0 0 C0 3 0 3 -1.8984375 5.26171875 C-2.71570313 6.06222656 -3.53296875 6.86273437 -4.375 7.6875 C-5.18710937 8.49574219 -5.99921875 9.30398438 -6.8359375 10.13671875 C-9 12 -9 12 -11 12 C-9.49650623 8.33213607 -7.36271208 6.31089607 -4.375 3.75 C-3.14910156 2.69039062 -3.14910156 2.69039062 -1.8984375 1.609375 C-1.27195312 1.07828125 -0.64546875 0.5471875 0 0 Z " fill="#439189" transform="translate(573,668)"/>
<path d="M0 0 C2.12046792 3.53411321 2.53199289 6.94393835 3 11 C2.01 11 1.02 11 0 11 C-1.35015859 6.94952424 -0.62084998 4.2079832 0 0 Z " fill="#307E7A" transform="translate(257,648)"/>
<path d="M0 0 C0.99 0.66 1.98 1.32 3 2 C2.360625 2.2475 1.72125 2.495 1.0625 2.75 C-1.18476569 3.78364885 -1.18476569 3.78364885 -1.5 5.9375 C-1.665 6.618125 -1.83 7.29875 -2 8 C-4.0625 9.75 -4.0625 9.75 -6 11 C-4.54955729 6.89041233 -2.48889248 3.56741255 0 0 Z " fill="#479587" transform="translate(643,590)"/>
<path d="M0 0 C0 3 0 3 -1.75 5.04296875 C-2.4925 5.75066406 -3.235 6.45835937 -4 7.1875 C-4.7425 7.90292969 -5.485 8.61835937 -6.25 9.35546875 C-7.11625 10.16951172 -7.11625 10.16951172 -8 11 C-8.66 10.34 -9.32 9.68 -10 9 C-6.7 6.03 -3.4 3.06 0 0 Z " fill="#0A282B" transform="translate(622,521)"/>
<path d="M0 0 C0.99 0 1.98 0 3 0 C2.42655063 2.86724686 2.1385485 3.8614515 0 6 C-2.125 5.625 -2.125 5.625 -4 5 C-2.1875 2.5 -2.1875 2.5 0 0 Z " fill="#0E2120" transform="translate(488,337)"/>
<path d="M0 0 C0.33 1.32 0.66 2.64 1 4 C-1.31 5.98 -3.62 7.96 -6 10 C-6 6.41087588 -5.33563446 5.89142971 -3 3.3125 C-2.443125 2.68988281 -1.88625 2.06726563 -1.3125 1.42578125 C-0.879375 0.95527344 -0.44625 0.48476563 0 0 Z " fill="#0C3333" transform="translate(602,680)"/>
<path d="M0 0 C3.63 0 7.26 0 11 0 C11.33 1.32 11.66 2.64 12 4 C6.06 2.515 6.06 2.515 0 1 C0 0.67 0 0.34 0 0 Z " fill="#3B8D7A" transform="translate(218,627)"/>
<path d="M0 0 C0.66 0 1.32 0 2 0 C2.99 3.63 3.98 7.26 5 11 C4.34 11 3.68 11 3 11 C0.87953208 7.46588679 0.46800711 4.05606165 0 0 Z " fill="#3C806F" transform="translate(774,584)"/>
<path d="M0 0 C0.66 0.33 1.32 0.66 2 1 C1.195625 1.763125 0.39125 2.52625 -0.4375 3.3125 C-3.16799024 5.79430898 -3.16799024 5.79430898 -4 9 C-4.99 8.67 -5.98 8.34 -7 8 C-7 7.34 -7 6.68 -7 6 C-5.46875 4.4921875 -5.46875 4.4921875 -3.5 2.875 C-2.8503125 2.33617187 -2.200625 1.79734375 -1.53125 1.2421875 C-1.0259375 0.83226562 -0.520625 0.42234375 0 0 Z " fill="#84C18A" transform="translate(406,513)"/>
<path d="M0 0 C1 3 1 3 0.25 5.125 C-1 7 -1 7 -4 8 C-2.87548273 5.0280615 -1.77706209 2.66559313 0 0 Z " fill="#7DBD84" transform="translate(451,400)"/>
<path d="M0 0 C0.99 0.33 1.98 0.66 3 1 C3 4.3 3 7.6 3 11 C2.67 11 2.34 11 2 11 C1.34 7.37 0.68 3.74 0 0 Z " fill="#333D3D" transform="translate(761,458)"/>
<path d="M0 0 C0.33 1.32 0.66 2.64 1 4 C-0.9375 6.25 -0.9375 6.25 -3 8 C-3.66 7.67 -4.32 7.34 -5 7 C-3.35 4.69 -1.7 2.38 0 0 Z " fill="#7BBE85" transform="translate(771,589)"/>
<path d="M0 0 C0.66 1.32 1.32 2.64 2 4 C-1.96 4 -5.92 4 -10 4 C-10 3.67 -10 3.34 -10 3 C-9.36191406 2.95101562 -8.72382813 2.90203125 -8.06640625 2.8515625 C-7.24011719 2.77679687 -6.41382813 2.70203125 -5.5625 2.625 C-4.73878906 2.55539062 -3.91507812 2.48578125 -3.06640625 2.4140625 C-2.38449219 2.27742187 -1.70257813 2.14078125 -1 2 C-0.67 1.34 -0.34 0.68 0 0 Z " fill="#DEEFE7" transform="translate(376,584)"/>
</svg>
